<svg width="22" height="23" viewBox="0 0 22 23" fill="none" xmlns="http://www.w3.org/2000/svg">
<g opacity="0.6">
<path fill-rule="evenodd" clip-rule="evenodd" d="M2.8798 3.54186C2.79028 3.53511 2.66604 3.53451 2.43306 3.53451H0.916667C0.410406 3.53451 0 3.1241 0 2.61784C0 2.11158 0.410406 1.70118 0.916667 1.70118H2.43306C2.4417 1.70118 2.45034 1.70118 2.45898 1.70117C2.65575 1.70115 2.85058 1.70113 3.01755 1.71371C3.20335 1.72771 3.41921 1.76059 3.64252 1.8602C3.9568 2.00039 4.22528 2.22621 4.41724 2.51182C4.55364 2.71476 4.62303 2.92179 4.66865 3.10245C4.70966 3.26479 4.74301 3.45674 4.77671 3.6506C4.77818 3.65912 4.77966 3.66763 4.78115 3.67615L4.99956 4.93205L16.9291 5.28517C17.3965 5.29899 17.8005 5.31094 18.1332 5.34758C18.4849 5.38631 18.8336 5.45914 19.168 5.63732C19.6748 5.90731 20.0844 6.32918 20.3393 6.84374C20.5075 7.18333 20.5699 7.53398 20.5982 7.88664C20.625 8.22028 20.625 8.62445 20.625 9.09213V9.15973C20.625 9.59924 20.625 9.9805 20.6004 10.2967C20.5743 10.6319 20.5167 10.9649 20.3631 11.2912C20.1293 11.7879 19.7523 12.2032 19.2804 12.4838C18.9704 12.6681 18.6445 12.7575 18.3133 12.8158C18.001 12.8707 17.6216 12.9074 17.1841 12.9497L8.26136 13.8132C7.81293 13.8566 7.4244 13.8943 7.10024 13.9C6.75679 13.906 6.41246 13.8793 6.06676 13.7523C5.54832 13.5619 5.09924 13.2197 4.778 12.7704C4.5638 12.4709 4.44668 12.146 4.36134 11.8132C4.28079 11.4992 4.21392 11.1146 4.13675 10.6708L2.97492 3.99027C2.935 3.76073 2.91312 3.63844 2.89114 3.55139C2.89036 3.5483 2.8896 3.54536 2.88887 3.54258C2.88601 3.54234 2.88298 3.5421 2.8798 3.54186ZM5.32019 6.77567L5.93719 10.3234C6.02181 10.8099 6.07681 11.1223 6.13719 11.3577C6.19478 11.5823 6.24033 11.6636 6.26935 11.7041C6.37643 11.8539 6.52612 11.968 6.69894 12.0314C6.74577 12.0486 6.83624 12.071 7.06799 12.0669C7.31098 12.0626 7.62676 12.0327 8.11829 11.9852L16.9745 11.1281C17.4543 11.0817 17.762 11.0513 17.9956 11.0102C18.2181 10.971 18.3011 10.9331 18.3435 10.9079C18.5008 10.8144 18.6264 10.676 18.7044 10.5104C18.7254 10.4658 18.7551 10.3795 18.7726 10.1543C18.791 9.91789 18.7917 9.60869 18.7917 9.12664C18.7917 8.61468 18.791 8.2848 18.7708 8.03333C18.7515 7.79271 18.7187 7.7025 18.6964 7.6575C18.6115 7.48598 18.4749 7.34536 18.306 7.25536C18.2617 7.23175 18.1725 7.19632 17.9325 7.16989C17.6818 7.14228 17.3521 7.13183 16.8403 7.11668L5.32019 6.77567Z" fill="white"/>
<path fill-rule="evenodd" clip-rule="evenodd" d="M7.79167 16.8262C7.28541 16.8262 6.875 17.2366 6.875 17.7428C6.875 18.2491 7.28541 18.6595 7.79167 18.6595C8.29793 18.6595 8.70833 18.2491 8.70833 17.7428C8.70833 17.2366 8.29793 16.8262 7.79167 16.8262ZM5.04167 17.7428C5.04167 16.2241 6.27288 14.9928 7.79167 14.9928C9.31045 14.9928 10.5417 16.2241 10.5417 17.7428C10.5417 19.2616 9.31045 20.4928 7.79167 20.4928C6.27288 20.4928 5.04167 19.2616 5.04167 17.7428Z" fill="white"/>
<path fill-rule="evenodd" clip-rule="evenodd" d="M16.5 16.8262C15.9937 16.8262 15.5833 17.2366 15.5833 17.7428C15.5833 18.2491 15.9937 18.6595 16.5 18.6595C17.0063 18.6595 17.4167 18.2491 17.4167 17.7428C17.4167 17.2366 17.0063 16.8262 16.5 16.8262ZM13.75 17.7428C13.75 16.2241 14.9812 14.9928 16.5 14.9928C18.0188 14.9928 19.25 16.2241 19.25 17.7428C19.25 19.2616 18.0188 20.4928 16.5 20.4928C14.9812 20.4928 13.75 19.2616 13.75 17.7428Z" fill="white"/>
</g>
</svg>
