<svg width="22" height="21" viewBox="0 0 22 21" fill="none" xmlns="http://www.w3.org/2000/svg">
<path d="M9.69978 9.48515L3.4998 1.38516C3.0998 0.985156 2.5998 0.785156 2.0998 0.785156C1.5998 0.785156 1.0998 0.985156 0.699803 1.38516C-0.000194848 2.18516 -0.000194848 3.38516 0.699803 4.18516L5.59979 10.7852L0.699803 17.3852C-0.000194848 18.1852 -0.000194848 19.3852 0.699803 20.1852C1.0998 20.5852 1.5998 20.7852 2.0998 20.7852C2.5998 20.7852 3.0998 20.5852 3.4998 20.1852L9.69978 12.0852C10.3998 11.4852 10.3998 10.2852 9.69978 9.48515Z" fill="#17696A"/>
<path d="M12.3426 9.48515L18.5426 1.38516C18.9426 0.985156 19.4426 0.785156 19.9426 0.785156C20.4426 0.785156 20.9426 0.985156 21.3426 1.38516C22.0426 2.18516 22.0426 3.38516 21.3426 4.18516L16.4426 10.7852L21.3426 17.3852C22.0426 18.1852 22.0426 19.3852 21.3426 20.1852C20.9426 20.5852 20.4426 20.7852 19.9426 20.7852C19.4426 20.7852 18.9426 20.5852 18.5426 20.1852L12.3426 12.0852C11.6426 11.4852 11.6426 10.2852 12.3426 9.48515Z" fill="#17696A"/>
</svg>
