<svg width="20" height="21" viewBox="0 0 20 21" fill="none" xmlns="http://www.w3.org/2000/svg">
<g opacity="0.6">
<path fill-rule="evenodd" clip-rule="evenodd" d="M9.99956 17.3745C6.167 15.1917 4.02946 13.0221 2.99582 11.1397C1.93789 9.21301 2.0302 7.59028 2.61724 6.43857C3.82389 4.0713 7.25522 3.31432 9.34586 5.95847L9.99951 6.78517L10.6532 5.95851C12.7442 3.31425 16.1757 4.07135 17.3823 6.43857C17.9694 7.59026 18.0617 9.21298 17.0037 11.1396C15.9699 13.0221 13.8323 15.1917 9.99956 17.3745ZM9.99959 4.20673C7.05858 1.41205 2.71992 2.56709 1.13235 5.68169C0.261063 7.39104 0.249161 9.60031 1.5349 11.9419C2.80924 14.2626 5.34999 16.7123 9.59643 19.0594L9.99954 19.2822L10.4027 19.0594C14.6493 16.7123 17.1901 14.2626 18.4645 11.9419C19.7504 9.60033 19.7385 7.39105 18.8672 5.68169C17.2796 2.56703 12.9408 1.4121 9.99959 4.20673Z" fill="white"/>
</g>
</svg>
