<svg width="130" height="23" viewBox="0 0 130 23" fill="none" xmlns="http://www.w3.org/2000/svg">
<g clip-path="url(#clip0_2830_24157)">
<path d="M-0.000244141 11.8859C-0.000244141 5.78594 3.29976 2.08594 8.69976 2.08594C12.7998 2.08594 16.0998 4.58594 16.6998 8.28594C16.7998 8.68594 16.4998 8.98594 16.0998 8.98594H13.4998C13.1998 8.98594 12.9998 8.78594 12.8998 8.48594C12.3998 6.58594 10.7998 5.38594 8.69976 5.38594C5.79976 5.38594 3.99976 7.88594 3.99976 11.8859C3.99976 15.8859 5.79976 18.3859 8.79976 18.3859C10.8998 18.3859 12.3998 17.2859 12.9998 15.4859C13.0998 15.1859 13.2998 14.9859 13.5998 14.9859H16.1998C16.5998 14.9859 16.8998 15.3859 16.7998 15.6859C16.1998 19.2859 12.9998 21.6859 8.79976 21.6859C3.29976 21.6859 -0.000244141 17.8859 -0.000244141 11.8859Z" fill="white"/>
<path d="M24.2994 21.1862H21.3994C21.0994 21.1862 20.8994 20.9862 20.8994 20.6862V3.38619C20.8994 2.98619 21.2994 2.58619 21.6994 2.58619H28.6994C32.7994 2.58619 35.2994 4.88619 35.2994 8.48619C35.2994 10.5862 34.2994 12.4862 32.5994 13.4862C32.1994 13.6862 32.0994 14.1862 32.2994 14.4862L35.3994 20.3862C35.5994 20.6862 35.2994 21.0862 34.9994 21.0862H31.6994C31.4994 21.0862 31.2994 20.9862 31.1994 20.7862L28.2994 14.7862C28.1994 14.4862 27.8994 14.3862 27.5994 14.3862H25.2994C24.9994 14.3862 24.7994 14.5862 24.7994 14.8862V20.7862C24.8994 20.9862 24.5994 21.1862 24.2994 21.1862ZM24.8994 10.9862C24.8994 11.2862 25.0994 11.4862 25.3994 11.4862H28.3994C30.3994 11.4862 31.4994 10.3862 31.4994 8.58619C31.4994 6.78619 30.2994 5.68619 28.3994 5.68619H25.4994C25.1994 5.68619 24.9994 5.88619 24.9994 6.18619V10.9862H24.8994Z" fill="white"/>
<path d="M51.4996 21.1862H40.4996C40.0996 21.1862 39.7996 20.8862 39.7996 20.4862V3.28619C39.7996 2.88619 40.0996 2.58619 40.4996 2.58619H51.4996C51.8996 2.58619 52.1996 2.88619 52.1996 3.28619V5.18619C52.1996 5.58619 51.8996 5.88619 51.4996 5.88619H44.1996C43.8996 5.88619 43.6996 6.08619 43.6996 6.38619V9.78619C43.6996 10.0862 43.8996 10.2862 44.1996 10.2862H50.9996C51.3996 10.2862 51.6996 10.5862 51.6996 10.9862V12.6862C51.6996 13.0862 51.3996 13.3862 50.9996 13.3862H44.1996C43.8996 13.3862 43.6996 13.5862 43.6996 13.8862V17.6862C43.6996 17.9862 43.8996 18.1862 44.1996 18.1862H51.4996C51.8996 18.1862 52.1996 18.4862 52.1996 18.8862V20.7862C52.1996 20.8862 51.8996 21.1862 51.4996 21.1862Z" fill="white"/>
<path d="M66.9997 16.6862H61.2997C60.9997 16.6862 60.7997 16.8862 60.6997 17.0862L59.5997 20.7862C59.4997 21.0862 59.2997 21.1862 58.9997 21.1862H56.3997C55.9997 21.1862 55.6997 20.7862 55.7997 20.3862L61.7997 2.98619C61.8997 2.78619 62.0997 2.58619 62.3997 2.58619H66.0997C66.3997 2.58619 66.5997 2.78619 66.6997 2.98619L72.6997 20.3862C72.7997 20.7862 72.4997 21.1862 72.0997 21.1862H69.1997C68.8997 21.1862 68.6997 20.9862 68.5997 20.7862L67.4997 17.0862C67.4997 16.8862 67.1997 16.6862 66.9997 16.6862ZM62.0997 13.7862H66.1997C66.3997 13.7862 66.4997 13.5862 66.4997 13.3862L64.2997 6.38619H64.0997L61.8997 13.3862C61.7997 13.5862 61.8997 13.7862 62.0997 13.7862Z" fill="white"/>
<path d="M78.9999 20.4866V6.28658C78.9999 5.98658 78.7999 5.78658 78.4999 5.78658H74.0999C73.6999 5.78658 73.2999 5.48658 73.2999 4.98658V3.28658C73.2999 2.88658 73.5999 2.48658 74.0999 2.48658H87.6998C88.0998 2.48658 88.4998 2.78658 88.4998 3.28658V4.98658C88.4998 5.38658 88.1998 5.78658 87.6998 5.78658H83.2999C82.9999 5.78658 82.7999 5.98658 82.7999 6.28658V20.5866C82.7999 20.9866 82.4999 21.2866 82.0999 21.2866H79.5999C79.2999 21.1866 78.9999 20.8866 78.9999 20.4866Z" fill="white"/>
<path d="M103.8 21.1862H92.7996C92.3996 21.1862 92.0996 20.8862 92.0996 20.4862V3.28619C92.0996 2.88619 92.3996 2.58619 92.7996 2.58619H103.8C104.2 2.58619 104.5 2.88619 104.5 3.28619V5.18619C104.5 5.58619 104.2 5.88619 103.8 5.88619H96.4996C96.1996 5.88619 95.9996 6.08619 95.9996 6.38619V9.78619C95.9996 10.0862 96.1996 10.2862 96.4996 10.2862H103.3C103.7 10.2862 104 10.5862 104 10.9862V12.6862C104 13.0862 103.7 13.3862 103.3 13.3862H96.4996C96.1996 13.3862 95.9996 13.5862 95.9996 13.8862V17.6862C95.9996 17.9862 96.1996 18.1862 96.4996 18.1862H103.8C104.2 18.1862 104.5 18.4862 104.5 18.8862V20.7862C104.5 20.8862 104.2 21.1862 103.8 21.1862Z" fill="white"/>
<path d="M117.7 10.4852L111.5 2.38516C111.1 1.98516 110.6 1.78516 110.1 1.78516C109.6 1.78516 109.1 1.98516 108.7 2.38516C108 3.18516 108 4.38516 108.7 5.18516L113.6 11.7852L108.7 18.3852C108 19.1852 108 20.3852 108.7 21.1852C109.1 21.5852 109.6 21.7852 110.1 21.7852C110.6 21.7852 111.1 21.5852 111.5 21.1852L117.7 13.0852C118.4 12.4852 118.4 11.2852 117.7 10.4852Z" fill="#17696A"/>
<path d="M120.343 10.4852L126.543 2.38516C126.943 1.98516 127.443 1.78516 127.943 1.78516C128.443 1.78516 128.943 1.98516 129.343 2.38516C130.043 3.18516 130.043 4.38516 129.343 5.18516L124.443 11.7852L129.343 18.3852C130.043 19.1852 130.043 20.3852 129.343 21.1852C128.943 21.5852 128.443 21.7852 127.943 21.7852C127.443 21.7852 126.943 21.5852 126.543 21.1852L120.343 13.0852C119.643 12.4852 119.643 11.2852 120.343 10.4852Z" fill="#17696A"/>
</g>
<defs>
<clipPath id="clip0_2830_24157">
<rect width="130" height="22" fill="white" transform="translate(0 0.785156)"/>
</clipPath>
</defs>
</svg>
