<svg width="16" height="17" viewBox="0 0 16 17" fill="none" xmlns="http://www.w3.org/2000/svg">
<path fill-rule="evenodd" clip-rule="evenodd" d="M7.25016 2.95247C4.44272 2.95247 2.16683 5.22836 2.16683 8.03581C2.16683 10.8433 4.44272 13.1191 7.25016 13.1191C8.65276 13.1191 9.92161 12.552 10.842 11.6329C11.7642 10.712 12.3335 9.44103 12.3335 8.03581C12.3335 5.22836 10.0576 2.95247 7.25016 2.95247ZM0.833496 8.03581C0.833496 4.49198 3.70634 1.61914 7.25016 1.61914C10.794 1.61914 13.6668 4.49198 13.6668 8.03581C13.6668 9.56861 13.1287 10.9767 12.2321 12.08L14.9711 14.814C15.2317 15.0741 15.2321 15.4962 14.972 15.7568C14.7119 16.0174 14.2898 16.0178 14.0292 15.7576L11.2888 13.0223C10.1863 13.9162 8.78039 14.4525 7.25016 14.4525C3.70634 14.4525 0.833496 11.5796 0.833496 8.03581Z" fill="white"/>
</svg>
