<?xml version="1.0" standalone="no"?>
<!DOCTYPE svg PUBLIC "-//W3C//DTD SVG 1.1//EN" "http://www.w3.org/Graphics/SVG/1.1/DTD/svg11.dtd" >
<svg xmlns="http://www.w3.org/2000/svg">
<metadata>Generated by IcoMoon</metadata>
<defs>
<font id="icon" horiz-adv-x="1024">
<font-face units-per-em="1024" ascent="960" descent="-64" />
<missing-glyph horiz-adv-x="1024" />
<glyph unicode="&#x20;" horiz-adv-x="512" d="" />
<glyph unicode="&#xe900;" glyph-name="alert" d="M874.24 21.333c99.413 0 160.853 107.947 110.507 193.28l-384.853 652.373c-18.347 31.573-52.053 50.347-87.893 50.347-36.267 0-69.973-18.773-88.32-50.347l-384.853-652.373c-50.347-85.333 11.093-193.28 110.507-193.28h724.907zM911.36 171.093c16.64-28.16-3.84-64.427-37.12-64.427h-724.907c-33.28 0-53.76 36.267-37.12 64.427l384.853 652.8c2.987 5.12 8.533 8.107 14.933 8.107 5.973 0 11.52-2.987 14.507-8.107l384.853-652.8zM512 336.213c-23.893 0-42.667 19.2-42.667 42.667v239.787c0 23.893 18.773 42.667 42.667 42.667 23.467 0 42.667-18.773 42.667-42.667v-239.787c0-23.467-19.2-42.667-42.667-42.667zM554.667 234.667c0-23.467-19.2-42.667-42.667-42.667-23.893 0-42.667 19.2-42.667 42.667 0 23.893 18.773 42.667 42.667 42.667 23.467 0 42.667-18.773 42.667-42.667z" />
<glyph unicode="&#xe901;" glyph-name="alert-octagon" d="M256 876.373c26.453 26.453 62.293 40.96 99.413 40.96h312.747c37.12 0 72.96-14.507 99.413-40.96l172.373-172.373c26.453-26.453 41.387-62.293 41.387-99.413v-312.747c0-37.12-14.933-72.96-41.387-99.413l-172.373-172.373c-26.453-26.453-62.293-41.387-99.413-41.387h-312.747c-37.12 0-72.96 14.933-99.413 41.387l-172.373 172.373c-26.453 26.453-40.96 62.293-40.96 99.413v312.747c0 37.12 14.507 72.96 40.96 99.413l172.373 172.373zM355.413 832c-14.507 0-28.587-5.547-39.253-16.213l-171.947-171.947c-10.667-10.667-16.213-24.747-16.213-39.253v-312.747c0-14.507 5.547-28.587 16.213-39.253l171.947-171.947c10.667-10.667 24.747-16.64 39.253-16.64h312.747c14.507 0 28.587 5.973 39.253 16.64l171.947 171.947c10.667 10.667 16.64 24.747 16.64 39.253v312.747c0 14.507-5.973 28.587-16.64 39.253l-171.947 171.947c-10.667 10.667-24.747 16.213-39.253 16.213h-312.747zM469.333 400.213c0-23.467 18.773-42.667 42.667-42.667 23.467 0 42.667 19.2 42.667 42.667v239.787c0 23.893-19.2 42.667-42.667 42.667-23.893 0-42.667-18.773-42.667-42.667v-239.787zM554.667 256c0-23.467-19.2-42.667-42.667-42.667-23.893 0-42.667 19.2-42.667 42.667 0 23.893 18.773 42.667 42.667 42.667 23.467 0 42.667-18.773 42.667-42.667z" />
<glyph unicode="&#xe902;" glyph-name="attach" d="M786.347 792.32c-77.227 77.227-202.24 77.227-279.467 0l-270.507-270.507c-16.64-16.64-43.52-16.64-60.16 0s-16.64 43.52 0 60.16l270.507 270.507c110.507 110.507 289.28 110.507 399.787 0 110.507-110.080 110.507-289.28 0-399.787l-363.947-363.52c-79.36-79.36-207.36-79.36-286.72 0-78.933 78.933-78.933 207.36 0 286.293v0.427h0.427l274.773 271.787c0 0 0 0 0 0 46.933 46.507 122.88 50.347 171.947 1.28 47.787-47.787 47.787-125.44 0-173.227l-192.427-192.427c-16.64-16.64-43.52-16.64-60.587 0-16.64 16.64-16.64 43.52 0 60.16l192.427 192.427c14.507 14.507 14.507 38.4 0 52.907-13.227 13.227-35.413 14.080-51.2-1.707v0 0l-274.773-271.787c-0.427 0-0.427 0-0.427 0-45.653-46.080-45.653-120.32 0.427-165.973 45.653-46.080 119.893-46.080 165.547 0l364.373 363.947c76.8 77.227 76.8 201.813 0 279.040z" />
<glyph unicode="&#xe903;" glyph-name="back" d="M381.867 819.627c-16.64 16.64-43.52 16.64-60.16 0l-224-224c-16.64-16.64-16.64-43.52 0-60.16l224-224c16.64-16.64 43.52-16.64 60.16 0s16.64 43.52 0 60.16l-151.040 151.040h441.173c99.84 0 181.333-81.067 181.333-181.333 0-99.84-81.493-181.333-181.333-181.333h-128c-23.893 0-42.667-18.773-42.667-42.667 0-23.467 18.773-42.667 42.667-42.667h128c147.2 0 266.667 119.467 266.667 266.667 0 147.627-119.467 266.667-266.667 266.667h-441.173l151.040 151.467c16.64 16.64 16.64 43.52 0 60.16z" />
<glyph unicode="&#xe904;" glyph-name="bag" d="M256 821.333c-47.36 0-85.333-37.973-85.333-85.333v-576c0-46.933 37.973-85.333 85.333-85.333h512c46.933 0 85.333 38.4 85.333 85.333v576c0 47.36-38.4 85.333-85.333 85.333h-512zM85.333 736c0 94.293 76.373 170.667 170.667 170.667h512c93.867 0 170.667-76.373 170.667-170.667v-576c0-93.867-76.8-170.667-170.667-170.667h-512c-94.293 0-170.667 76.8-170.667 170.667v576zM704 746.667c23.467 0 42.667-18.773 42.667-42.667v-64c0-129.28-105.387-234.667-234.667-234.667-129.707 0-234.667 105.387-234.667 234.667v64c0 23.893 18.773 42.667 42.667 42.667 23.467 0 42.667-18.773 42.667-42.667v-64c0-82.347 66.56-149.333 149.333-149.333 82.347 0 149.333 66.987 149.333 149.333v64c0 23.893 18.773 42.667 42.667 42.667z" />
<glyph unicode="&#xe905;" glyph-name="basket" d="M150.475 802.31c-3.986 0.301-9.517 0.327-19.89 0.327h-67.512c-22.54 0-40.812 18.272-40.812 40.812s18.272 40.811 40.812 40.811h67.512c0.385 0 0.769 0 1.154 0 8.761 0.001 17.435 0.002 24.869-0.558 8.272-0.623 17.883-2.087 27.825-6.522 13.992-6.242 25.945-16.295 34.492-29.011 6.073-9.035 9.162-18.253 11.193-26.296 1.826-7.228 3.311-15.774 4.811-24.405 0.065-0.379 0.131-0.758 0.198-1.138l9.724-55.915 531.124-15.722c20.809-0.615 38.796-1.147 53.609-2.779 15.658-1.724 31.183-4.967 46.071-12.9 22.564-12.020 40.8-30.803 52.148-53.712 7.489-15.119 10.267-30.731 11.527-46.432 1.193-14.854 1.193-32.849 1.193-53.671v-3.010c0-19.568 0-36.542-1.095-50.62-1.162-14.924-3.726-29.749-10.565-44.277-10.409-22.114-27.194-40.604-48.204-53.097-13.802-8.205-28.311-12.186-43.057-14.781-13.904-2.444-30.796-4.078-50.274-5.961l-397.256-38.445c-19.965-1.932-37.263-3.611-51.695-3.864-15.291-0.267-30.621 0.922-46.012 6.576-23.082 8.477-43.076 23.712-57.378 43.716-9.537 13.334-14.751 27.799-18.55 42.616-3.586 13.98-6.563 31.103-9.999 50.862l-51.727 297.429c-1.777 10.22-2.751 15.664-3.73 19.54-0.035 0.138-0.069 0.268-0.101 0.392-0.127 0.011-0.262 0.021-0.404 0.032zM259.125 658.335l27.47-157.951c3.767-21.66 6.216-35.568 8.904-46.049 2.564-10 4.592-13.619 5.884-15.422 4.767-6.669 11.432-11.749 19.126-14.572 2.085-0.766 6.113-1.763 16.431-1.581 10.818 0.191 24.877 1.523 46.761 3.637l394.294 38.16c21.362 2.066 35.061 3.419 45.461 5.249 9.906 1.745 13.601 3.433 15.489 4.555 7.003 4.163 12.595 10.325 16.068 17.697 0.935 1.986 2.257 5.828 3.036 15.854 0.819 10.525 0.85 24.292 0.85 45.753 0 22.793-0.031 37.48-0.931 48.676-0.859 10.713-2.32 14.729-3.312 16.733-3.78 7.636-9.862 13.897-17.381 17.904-1.972 1.051-5.944 2.629-16.629 3.805-11.162 1.229-25.84 1.694-48.627 2.369l-512.895 15.182zM369.16 210.868c-22.54 0-40.812-18.272-40.812-40.809 0-22.541 18.272-40.813 40.812-40.813s40.811 18.272 40.811 40.813c0 22.537-18.272 40.809-40.811 40.809zM246.725 170.060c0 67.615 54.816 122.435 122.435 122.435s122.436-54.82 122.436-122.435c0-67.62-54.817-122.435-122.436-122.435s-122.435 54.815-122.435 122.435zM756.87 210.868c-22.541 0-40.813-18.272-40.813-40.809 0-22.541 18.272-40.813 40.813-40.813s40.813 18.272 40.813 40.813c0 22.537-18.272 40.809-40.813 40.809zM634.435 170.060c0 67.615 54.815 122.435 122.435 122.435s122.435-54.82 122.435-122.435c0-67.62-54.815-122.435-122.435-122.435s-122.435 54.815-122.435 122.435z" />
<glyph unicode="&#xe906;" glyph-name="behance" d="M527.36 314.027c0 84.053-37.547 146.347-115.2 169.813 56.747 28.587 86.187 72.107 86.187 139.52 0 133.547-93.44 165.973-201.387 165.973h-296.96v-669.867h305.067c114.773 0 222.293 58.453 222.293 194.56zM923.733 754.347h-255.147v-66.133h255.147v66.133zM138.24 675.413h130.133c49.92 0 94.72-15.36 94.72-76.8 0-56.747-34.987-79.787-84.48-79.787h-140.373v156.587zM801.707 106.667c109.227 0 179.627 52.48 213.76 163.413h-110.507c-11.947-41.387-61.013-63.573-98.987-63.573-73.813 0-112.213 46.080-112.213 123.733h328.96c10.667 155.733-70.827 288-221.013 288-139.093 0-233.387-110.933-233.387-256.427 0-151.467 89.6-255.147 233.387-255.147zM797.867 517.547c63.147 0 94.72-39.253 99.84-103.68h-203.947c4.267 64 43.947 103.68 104.107 103.68zM138.24 233.387v184.32h151.040c61.013 0 99.413-26.88 99.413-95.573 0-67.413-46.080-88.747-102.4-88.747h-148.053z" />
<glyph unicode="&#xe907;" glyph-name="bell" d="M512 874.667c180.48 0 320-168.533 320-341.333v-142.080c0-31.147 14.507-60.587 39.68-79.36 69.12-52.053 32.427-162.56-54.187-162.56h-156.587c0-82.347-66.56-149.333-149.333-149.333-82.347 0-149.333 66.987-149.333 149.333h-156.16c-86.613 0-123.307 110.507-54.187 162.56 25.173 18.773 40.107 48.213 40.107 79.36v142.080c0 172.8 139.093 341.333 320 341.333zM575.573 149.333h-128c0-34.987 28.587-64 64-64s64 29.013 64 64zM637.44 234.667h180.053c1.28 0 1.707 0.427 2.133 0.427s0.427 0.427 0.853 0.427 1.28 1.28 1.707 2.56c0.427 1.28 0.427 2.56 0 2.987 0 0.427 0 0.853-0.427 0.853 0 0.427-0.427 0.853-1.28 1.28-46.507 34.987-73.813 90.027-73.813 148.053v142.080c0 133.973-109.227 256-234.667 256-125.867 0-234.667-122.027-234.667-256v-142.080c0-58.027-27.733-113.067-74.24-148.053-0.853-0.427-1.28-0.853-1.28-1.28-0.427 0-0.427-0.427-0.427-0.853-0.427-0.427-0.427-1.707 0-2.987s1.28-2.133 1.707-2.56c0.427 0 0.427-0.427 0.853-0.427s0.853-0.427 2.133-0.427h431.36z" />
<glyph unicode="&#xe908;" glyph-name="bleach" d="M1021.44-29.867l-488.96 978.347c-7.68 15.787-33.707 15.787-41.387 0l-488.96-978.347c-3.413-7.253-2.987-16.213 1.28-23.040s11.52-11.093 19.627-11.093h977.493c8.107 0 15.36 4.267 19.627 11.093s4.693 15.787 1.28 23.040zM60.587-17.067l451.413 901.973 450.987-901.973h-902.4z" />
<glyph unicode="&#xe909;" glyph-name="block" d="M512 917.333c-259.413 0-469.333-209.92-469.333-469.333 0-258.987 209.92-469.333 469.333-469.333 258.987 0 469.333 210.347 469.333 469.333 0 259.413-210.347 469.333-469.333 469.333zM128 448c0 212.48 171.52 384 384 384 90.88 0 174.507-31.573 240.64-84.48l-540.16-540.16c-52.907 66.133-84.48 149.76-84.48 240.64zM273.067 147.2l539.733 539.733c52.053-65.707 83.2-148.48 83.2-238.933 0-212.053-171.947-384-384-384-90.453 0-173.227 31.147-238.933 83.2z" />
<glyph unicode="&#xe90a;" glyph-name="calendar" d="M320 906.667c23.467 0 42.667-18.773 42.667-42.667v-21.333h298.667v21.333c0 23.893 18.773 42.667 42.667 42.667 23.467 0 42.667-18.773 42.667-42.667v-21.333h53.333c93.867 0 170.667-76.373 170.667-170.667v-512c0-93.867-76.8-170.667-170.667-170.667h-576c-94.293 0-170.667 76.8-170.667 170.667v512c0 94.293 76.373 170.667 170.667 170.667h53.333v21.333c0 23.893 18.773 42.667 42.667 42.667zM277.333 757.333h-53.333c-47.36 0-85.333-37.973-85.333-85.333v-53.333h746.667v53.333c0 47.36-38.4 85.333-85.333 85.333h-53.333v-21.333c0-23.467-19.2-42.667-42.667-42.667-23.893 0-42.667 19.2-42.667 42.667v21.333h-298.667v-21.333c0-23.467-19.2-42.667-42.667-42.667-23.893 0-42.667 19.2-42.667 42.667v21.333zM885.333 533.333h-746.667v-373.333c0-46.933 37.973-85.333 85.333-85.333h576c46.933 0 85.333 38.4 85.333 85.333v373.333z" />
<glyph unicode="&#xe90b;" glyph-name="card" d="M181.333 757.333c-23.893 0-42.667-18.773-42.667-42.667v-64h746.667v64c0 23.893-19.2 42.667-42.667 42.667h-661.333zM885.333 565.333h-746.667v-106.667h746.667v106.667zM885.333 373.333h-746.667v-192c0-23.467 18.773-42.667 42.667-42.667h661.333c23.467 0 42.667 19.2 42.667 42.667v192zM53.333 714.667c0 70.827 57.173 128 128 128h661.333c70.4 0 128-57.173 128-128v-533.333c0-70.4-57.6-128-128-128h-661.333c-70.827 0-128 57.6-128 128v533.333z" />
<glyph unicode="&#xe90c;" glyph-name="chat" d="M468.907 874.667c-108.373 0-208.64-33.28-282.027-89.6-73.813-56.747-123.307-137.387-123.307-230.4 0-43.52 11.093-84.907 30.72-122.453 0-1.707 0-4.267 0-7.253-0.853-9.387-3.413-22.187-6.827-37.547-6.827-30.293-17.92-64.853-26.88-92.587-17.067-52.053 34.56-101.12 85.76-81.067 29.44 11.093 67.84 25.6 102.4 35.413 17.067 5.12 32.427 8.96 44.373 10.667 7.68 1.28 11.947 1.28 13.653 1.28 0.427 0 0.427 0 0.427 0 49.92-17.067 104.533-26.453 161.707-26.453 108.8 0 208.64 33.707 282.453 90.027 73.813 56.747 122.88 137.387 122.88 229.973 0 93.013-49.067 173.653-122.88 230.4-73.813 56.32-173.653 89.6-282.453 89.6zM148.907 554.667c0 60.587 32 118.613 89.6 162.56s139.093 72.107 230.4 72.107c91.733 0 173.227-28.16 230.827-72.107s89.173-101.973 89.173-162.56c0-60.16-31.573-118.187-89.173-162.133s-139.093-72.533-230.827-72.533c-48.213 0-94.293 8.107-135.253 22.187-18.347 6.4-39.253 4.267-54.187 2.133-16.64-2.987-35.84-7.68-54.613-13.227-23.467-6.827-48.213-14.933-70.827-23.467 5.973 19.627 11.947 40.96 16.64 60.587 3.84 16.64 7.253 33.707 8.533 49.067 0.427 7.253 0.853 15.36 0.427 23.467-0.853 6.827-2.133 17.493-8.107 27.733-14.507 27.307-22.613 56.32-22.613 86.187zM893.44 390.4c21.333 36.693 35.84 76.8 41.813 119.040 29.013-42.667 45.653-92.16 45.653-146.773 0-48.213-13.653-93.44-37.547-133.12-0.427-0.853-0.427-2.56-0.853-5.12-0.427-6.827-0.427-15.787 0.427-26.453 1.28-21.76 5.12-46.933 8.96-67.413 8.107-47.36-37.12-88.32-84.053-73.387-22.187 6.827-50.773 15.36-75.947 20.907-12.8 2.987-23.467 4.693-32.427 5.973-5.12 0.427-8.107 0.427-9.387 0.427v0h-0.427c-40.533-13.227-84.907-20.48-131.413-20.48-118.187 0-229.12 48.213-296.107 126.293 46.080-12.8 95.573-19.627 146.773-19.627 8.96 0 17.92 0.427 26.453 0.853 36.693-14.080 78.080-22.187 122.88-22.187 37.973 0 74.24 5.973 107.093 16.64 14.933 4.693 31.573 3.84 43.093 2.56 13.227-1.28 27.733-3.84 42.24-7.253 17.067-3.84 35.413-8.533 52.053-13.653-2.133 14.507-3.84 29.867-5.12 44.373-0.853 13.227-0.853 26.453 0 38.827 0.853 11.093 2.987 27.307 11.52 41.387 17.493 27.733 26.453 58.453 26.453 90.453 0 9.387-0.427 18.773-2.133 27.733z" />
<glyph unicode="&#xe90d;" glyph-name="check" d="M981.333 448c0-258.56-210.773-469.333-469.333-469.333-258.987 0-469.333 210.773-469.333 469.333 0 258.987 210.347 469.333 469.333 469.333 93.867 0 184.32-27.307 261.547-79.36 17.92-11.947 22.613-36.267 10.667-54.187s-36.267-22.613-54.187-10.667c-64.427 43.093-139.947 66.133-218.027 66.133-215.893 0-391.253-175.36-391.253-391.253 0-215.467 175.36-390.827 391.253-390.827 215.467 0 390.827 175.36 390.827 390.827 0 37.547-5.12 74.24-15.36 109.227-5.973 20.48 5.973 42.24 26.453 48.213 20.907 6.4 42.667-5.547 48.64-26.453 12.373-42.24 18.773-86.187 18.773-130.987zM511.573 423.253l439.467 439.040c16.64 16.64 43.52 16.64 60.16 0s16.64-43.52 0-60.16l-469.333-469.333c-8.107-8.533-19.2-12.8-30.293-12.8-10.667 0-21.76 4.267-29.867 12.8l-170.667 170.667c-16.64 16.64-16.64 43.52 0 60.16s43.52 16.64 60.16 0l140.373-140.373z" />
<glyph unicode="&#xe90e;" glyph-name="check-round" d="M512 917.333c-259.413 0-469.333-209.92-469.333-469.333 0-258.987 209.92-469.333 469.333-469.333 258.987 0 469.333 210.347 469.333 469.333 0 259.413-210.347 469.333-469.333 469.333zM128 448c0 212.48 171.52 384 384 384 212.053 0 384-171.52 384-384 0-212.053-171.947-384-384-384-212.48 0-384 171.947-384 384zM734.72 546.987c16.213 17.067 15.36 43.947-1.707 60.16s-43.947 15.36-60.16-1.707l-210.773-223.147-111.36 117.76c-16.213 17.067-43.093 17.92-60.16 1.707s-17.92-43.093-1.707-60.16l142.080-150.613c8.107-8.533 19.2-13.653 31.147-13.653 11.52 0 23.040 5.12 31.147 13.653l241.493 256z" />
<glyph unicode="&#xe90f;" glyph-name="clock" d="M42.667 448c0 259.413 209.92 469.333 469.333 469.333 258.987 0 469.333-209.92 469.333-469.333 0-258.987-210.347-469.333-469.333-469.333-259.413 0-469.333 210.347-469.333 469.333zM512 832c-212.48 0-384-171.52-384-384 0-212.053 171.52-384 384-384 212.053 0 384 171.947 384 384 0 212.48-171.947 384-384 384zM512 725.333c23.467 0 42.667-18.773 42.667-42.667v-216.747l115.2-115.627c16.64-16.64 16.64-43.52 0-60.16s-43.52-16.64-60.16 0l-128 128c-8.107 8.107-12.373 18.773-12.373 29.867v234.667c0 23.893 18.773 42.667 42.667 42.667z" />
<glyph unicode="&#xe910;" glyph-name="closed-eye" d="M350.293 151.467c22.613-6.827 46.507 5.973 52.907 28.587l31.147 105.387c51.2-10.667 103.68-10.667 154.88 0l31.147-105.387c6.4-22.613 30.293-35.413 52.907-28.587 22.613 6.4 35.413 30.293 28.587 52.907l-31.147 107.093c41.813 18.347 82.773 43.947 121.173 76.373l72.533-79.36c15.787-17.493 42.667-18.773 60.16-2.56 17.493 15.787 18.773 42.667 2.56 60.16l-74.24 81.493c28.16 31.147 54.613 66.56 78.933 106.24 12.8 19.627 6.4 46.080-13.227 58.453-20.053 12.8-46.507 6.4-58.88-13.653-29.867-47.36-61.867-87.040-95.147-119.893-50.773-50.347-104.96-83.627-159.147-100.693-61.867-20.053-125.44-20.053-187.307 0-54.187 17.067-108.373 50.347-159.147 100.693-33.28 32.853-65.28 72.533-95.147 119.893-12.373 20.053-38.827 26.453-58.88 13.653-19.627-12.373-26.027-38.827-13.227-58.453 24.32-39.68 50.773-75.093 78.933-106.24l-74.24-81.493c-16.213-17.493-14.933-44.373 2.56-60.16 17.493-16.213 44.373-14.933 60.16 2.56l72.533 79.36c38.4-32.427 79.36-58.027 121.173-76.373l-31.147-107.093c-6.827-22.613 5.973-46.507 28.587-52.907z" />
<glyph unicode="&#xe911;" glyph-name="close-round" d="M512 917.333c-259.413 0-469.333-209.92-469.333-469.333 0-258.987 209.92-469.333 469.333-469.333 258.987 0 469.333 210.347 469.333 469.333 0 259.413-210.347 469.333-469.333 469.333zM128 448c0 212.48 171.52 384 384 384 212.053 0 384-171.52 384-384 0-212.053-171.947-384-384-384-212.48 0-384 171.947-384 384zM374.187 648.533c-17.067 17.493-45.227 17.493-62.72 0s-17.493-45.653 0-62.72l137.387-137.813-137.387-137.387c-17.493-17.067-17.493-45.227 0-62.72s45.653-17.493 62.72 0l137.813 137.387 137.387-137.387c17.067-17.493 45.227-17.493 62.72 0s17.493 45.653 0 62.72l-137.387 137.387 137.387 137.813c17.493 17.067 17.493 45.227 0 62.72s-45.653 17.493-62.72 0l-137.387-137.387-137.813 137.387z" />
<glyph unicode="&#xe912;" glyph-name="comment" d="M885.333 330.667v362.667c0 70.827-57.6 128-128 128h-490.667c-70.827 0-128-57.173-128-128v-610.133l167.253 119.467h451.413c70.4 0 128 57.6 128 128zM970.667 693.333v-362.667c0-117.76-95.573-213.333-213.333-213.333h-423.68l-145.493-103.68c-56.747-40.107-134.827 0-134.827 69.547v610.133c0 118.187 95.147 213.333 213.333 213.333h490.667c117.76 0 213.333-95.147 213.333-213.333z" />
<glyph unicode="&#xe913;" glyph-name="comments" d="M391 888c-200.195 0-363-140.989-363-314.286 0-91.581 45.012-176.564 124.448-236.908l-30.492-63.36c-5.687-11.755-3.691-26.022 5.021-35.58 5.808-6.409 13.854-9.865 22.022-9.865 3.993 0 8.047 0.815 11.919 2.513l106.964 47.582c50.154-15.778 103.636-20.553 157.3-17.348 16.699 0.879 29.524 15.714 28.616 33.062-0.909 17.412-16.759 31.616-31.823 29.67-50.094-2.641-99.825 1.946-146.047 17.975-7.018 2.389-14.641 2.010-21.478-0.943l-41.443-18.479 5.445 11.375c6.957 14.46 2.178 32.119-11.072 40.67-75.565 49.028-118.883 121.754-118.883 199.634 0 138.663 135.701 251.429 302.5 251.429s302.5-112.766 302.5-251.429c0-9.428-0.422-18.292-1.937-27.154-2.961-17.097 8.047-33.438 24.444-36.459 16.695-3.204 32.124 8.299 35.089 25.396 2.116 12.509 2.906 25.017 2.906 38.217 0 173.297-162.807 314.286-363.001 314.286zM893.453 134.281c64.674 47.518 102.549 116.032 102.549 188.006 0 138.662-135.706 251.427-302.502 251.427s-302.5-112.765-302.5-251.427c0-153.562 164.559-277.517 357.194-247.091l145.139-64.683c3.81-1.634 7.923-2.513 11.917-2.513 8.166 0 16.213 3.456 22.020 9.933 8.772 9.553 10.769 23.757 5.082 35.575l-38.899 80.772zM839.185 172.813c-13.918-8.299-19.179-26.402-12.041-41.297l14.097-29.419-77.321 34.509c-3.75 1.634-7.863 2.513-11.917 2.513-1.754 0-3.447-0.124-5.141-0.439-18.577-3.392-36.062-4.966-53.363-4.966-133.461 0-242.001 84.608-242.001 188.574s108.54 188.57 242.001 188.57c133.461 0 242.001-84.604 242.001-188.57 0-58.586-35.089-113.079-96.316-149.474z" />
<glyph unicode="&#xe914;" glyph-name="convert" d="M131.84 832c0 23.893-18.773 42.667-42.667 42.667-23.467 0-42.667-18.773-42.667-42.667v-256c0-23.467 19.2-42.667 42.667-42.667h256c23.893 0 42.667 19.2 42.667 42.667 0 23.893-18.773 42.667-42.667 42.667h-129.28c59.307 102.4 169.387 170.667 295.68 170.667 148.907 0 275.2-94.72 322.133-227.413 7.68-22.187 32.427-33.707 54.613-26.027 22.187 8.107 33.707 32.427 26.027 54.613-58.88 165.547-216.747 284.16-402.773 284.16-165.547 0-308.907-93.867-379.733-231.68v189.013zM189.867 334.507c-8.107 22.187-32.427 33.707-54.613 26.027-22.187-8.107-33.707-32.427-26.027-54.613 58.453-165.547 216.747-284.587 402.347-284.587 165.547 0 309.333 94.293 379.733 232.107v-189.44c0-23.467 19.2-42.667 42.667-42.667 23.893 0 42.667 19.2 42.667 42.667v256c0 23.893-18.773 42.667-42.667 42.667h-256c-23.467 0-42.667-18.773-42.667-42.667 0-23.467 19.2-42.667 42.667-42.667h129.28c-58.88-101.973-169.387-170.667-295.68-170.667-148.48 0-274.773 95.147-321.707 227.84z" />
<glyph unicode="&#xe915;" glyph-name="cross" d="M183.040 776.96c16.64 16.64 43.52 16.64 60.16 0l268.8-268.373 268.373 268.373c16.64 16.64 43.52 16.64 60.16 0s16.64-43.52 0-60.16l-268.373-268.8 268.373-268.373c16.64-16.64 16.64-43.52 0-60.16s-43.52-16.64-60.16 0l-268.373 268.373-268.8-268.373c-16.64-16.64-43.52-16.64-60.16 0s-16.64 43.52 0 60.16l268.373 268.373-268.373 268.8c-16.64 16.64-16.64 43.52 0 60.16z" />
<glyph unicode="&#xe916;" glyph-name="danger" d="M42.667 448c0 259.413 209.92 469.333 469.333 469.333 258.987 0 469.333-209.92 469.333-469.333 0-258.987-210.347-469.333-469.333-469.333-259.413 0-469.333 210.347-469.333 469.333zM512 832c-212.48 0-384-171.52-384-384 0-212.053 171.52-384 384-384 212.053 0 384 171.947 384 384 0 212.48-171.947 384-384 384zM469.333 421.547c0-23.467 18.773-42.667 42.667-42.667 23.467 0 42.667 19.2 42.667 42.667v239.787c0 23.893-19.2 42.667-42.667 42.667-23.893 0-42.667-18.773-42.667-42.667v-239.787zM554.667 277.333c0-23.467-19.2-42.667-42.667-42.667-23.893 0-42.667 19.2-42.667 42.667 0 23.893 18.773 42.667 42.667 42.667 23.467 0 42.667-18.773 42.667-42.667z" />
<glyph unicode="&#xe917;" glyph-name="delete" d="M309.333 800c0 59.307 47.36 106.667 106.667 106.667h192c58.88 0 106.667-47.36 106.667-106.667v-21.333h213.333c23.467 0 42.667-18.773 42.667-42.667 0-23.467-19.2-42.667-42.667-42.667h-53.333v-533.333c0-93.867-76.8-170.667-170.667-170.667h-384c-94.293 0-170.667 76.8-170.667 170.667v533.333h-53.333c-23.893 0-42.667 19.2-42.667 42.667 0 23.893 18.773 42.667 42.667 42.667h213.333v21.333zM394.667 778.667h234.667v21.333c0 11.947-9.813 21.333-21.333 21.333h-192c-11.947 0-21.333-9.387-21.333-21.333v-21.333zM234.667 693.333v-533.333c0-46.933 37.973-85.333 85.333-85.333h384c46.933 0 85.333 38.4 85.333 85.333v533.333h-554.667zM512 618.667c23.467 0 42.667-18.773 42.667-42.667v-384c0-23.467-19.2-42.667-42.667-42.667-23.893 0-42.667 19.2-42.667 42.667v384c0 23.893 18.773 42.667 42.667 42.667z" />
<glyph unicode="&#xe918;" glyph-name="dislike" d="M419.84 74.667c5.973 0 11.52 3.413 14.507 8.533l0.427 0.427 195.84 317.44v420.267h-366.507c-7.68 0-14.507-5.12-16.213-12.8l-0.427-0.853-108.8-424.96c-1.707-10.24 5.973-20.053 16.64-20.053h165.973c27.733 0 55.893-8.96 76.373-29.013 21.333-20.907 31.147-51.2 24.747-83.627l-30.72-155.307c-1.707-10.24 5.973-20.053 16.64-20.053h11.52zM715.947 821.333v-389.973h151.040c8.96 0 16.64 7.68 16.64 16.64l2.987 356.693c0 9.387-7.68 16.64-17.067 16.64h-153.6zM696.747 346.027l-189.013-306.347c-18.347-31.147-51.627-50.347-87.893-50.347h-11.52c-64.427 0-112.64 58.88-100.267 122.027l30.72 155.307c0.427 2.987 0.427 3.84 0 4.267 0 0.427 0 0.853-0.853 1.707-1.707 1.707-7.253 4.693-16.64 4.693h-165.973c-65.28 0-113.92 60.587-99.84 124.587l0.427 0.427 108.8 425.387c10.667 46.507 51.627 78.933 99.413 78.933h605.44c56.747 0 102.827-46.080 102.4-102.827l-2.987-356.267c-0.427-56.32-46.080-101.547-101.973-101.547h-170.24z" />
<glyph unicode="&#xe919;" glyph-name="down-chevron" d="M840.533 606.293c16.64-16.64 16.64-43.52 0-60.16l-298.667-298.667c-16.64-16.64-43.52-16.64-60.16 0l-298.667 298.667c-16.64 16.64-16.64 43.52 0 60.16s43.52 16.64 60.16 0l268.8-268.373 268.373 268.373c16.64 16.64 43.52 16.64 60.16 0z" />
<glyph unicode="&#xe91a;" glyph-name="dry-clean" d="M512 960c-282.453 0-512-229.547-512-512 0-282.027 229.547-512 512-512 282.027 0 512 229.973 512 512 0 282.453-229.973 512-512 512zM512-21.333c-258.987 0-469.333 210.773-469.333 469.333 0 258.987 210.347 469.333 469.333 469.333 258.56 0 469.333-210.347 469.333-469.333 0-258.56-210.773-469.333-469.333-469.333z" />
<glyph unicode="&#xe91b;" glyph-name="envel-opened" d="M970.667 591.787c-0.427-2.56-0.427-5.12-0.853-7.68 0.427-2.56 0.853-5.12 0.853-8.107v-373.333c0-117.76-95.573-213.333-213.333-213.333h-490.667c-118.187 0-213.333 95.573-213.333 213.333v373.333c0 2.987 0 5.547 0.427 8.107-1.707 8.96-0.427 17.493 2.987 25.6 2.133 4.693 5.12 8.533 8.533 12.373 1.707 1.707 3.84 3.84 5.973 5.12l364.8 266.667c45.227 32.853 106.24 32.853 151.467 0l364.8-266.667c2.133-1.28 4.267-3.413 5.973-5.12 3.413-3.84 6.4-7.68 8.533-12.373 2.56-5.547 3.84-11.947 3.84-17.92zM885.333 510.72l-252.16-174.507c-72.96-50.347-169.813-50.347-242.773 0l-251.733 174.507v-308.053c0-70.4 57.173-128 128-128h490.667c70.4 0 128 57.6 128 128v308.053zM854.187 593.067l-317.013 232.107c-15.36 10.667-35.413 10.667-50.773 0l-317.013-232.107 269.653-186.453c43.52-30.293 101.973-30.293 145.493 0l269.653 186.453z" />
<glyph unicode="&#xe91c;" glyph-name="expand" d="M128 789.333c0 23.893 18.773 42.667 42.667 42.667h213.333c23.467 0 42.667-18.773 42.667-42.667 0-23.467-19.2-42.667-42.667-42.667h-110.507l238.507-238.080 238.080 238.080h-110.080c-23.893 0-42.667 19.2-42.667 42.667 0 23.893 18.773 42.667 42.667 42.667h213.333c23.467 0 42.667-18.773 42.667-42.667v-213.333c0-23.467-19.2-42.667-42.667-42.667-23.893 0-42.667 19.2-42.667 42.667v110.507l-238.507-238.507 238.507-238.080v110.080c0 23.893 18.773 42.667 42.667 42.667 23.467 0 42.667-18.773 42.667-42.667v-213.333c0-23.467-19.2-42.667-42.667-42.667h-213.333c-23.893 0-42.667 19.2-42.667 42.667 0 23.893 18.773 42.667 42.667 42.667h110.080l-238.080 238.507-238.507-238.507h110.507c23.467 0 42.667-18.773 42.667-42.667 0-23.467-19.2-42.667-42.667-42.667h-213.333c-23.893 0-42.667 19.2-42.667 42.667v213.333c0 23.893 18.773 42.667 42.667 42.667 23.467 0 42.667-18.773 42.667-42.667v-110.080l238.080 238.080-238.080 238.507v-110.507c0-23.467-19.2-42.667-42.667-42.667-23.893 0-42.667 19.2-42.667 42.667v213.333z" />
<glyph unicode="&#xe91d;" glyph-name="external-link" d="M741.547 736.427l-145.92 0.427c-23.040 0-41.387 18.773-41.387 41.813s18.773 41.387 41.387 41.387l240.64-0.427c12.373 1.707 25.6-2.133 34.987-11.947 8.533-8.107 12.373-19.2 12.373-29.867v-245.76c0-23.040-18.773-41.387-41.387-41.387-23.040 0-41.813 18.347-41.813 41.387v145.92l-390.827-390.827c-16.213-16.213-42.667-16.213-58.88 0s-16.213 42.667 0 58.88l390.827 390.4zM800.427 117.333v168.533c0 23.040 18.773 41.387 41.387 41.387 23.040 0 41.813-18.347 41.813-41.387v-168.533c0-100.267-81.067-181.333-180.907-181.333h-521.813c-100.267 0-180.907 81.067-180.907 181.333v521.813c0 99.84 80.64 180.907 180.907 180.907h168.533c22.613 0 41.387-18.773 41.387-41.387 0-23.040-18.773-41.813-41.387-41.813h-168.533c-54.187 0-98.133-43.52-98.133-97.707v-521.813c0-54.187 43.947-98.133 98.133-98.133h521.813c53.76 0 97.707 43.947 97.707 98.133z" />
<glyph unicode="&#xe91e;" glyph-name="eye" d="M501.333 746.667c140.373 0 273.067-53.76 388.267-149.76 18.347-15.36 45.227-12.8 60.16 5.12 15.36 18.347 12.8 45.227-5.12 60.16-128.427 107.093-280.32 169.813-443.307 169.813-163.413 0-315.307-62.72-443.733-169.813-17.92-14.933-20.48-41.813-5.12-60.16 14.933-17.92 41.813-20.48 60.16-5.12 115.2 96 247.893 149.76 388.693 149.76zM485.12 672c-124.16 0-233.813-60.16-310.187-125.013-38.827-32.853-70.4-67.413-93.013-98.987-11.093-15.36-20.48-30.72-27.307-44.8-5.973-12.8-11.947-29.013-11.947-45.653s5.973-32.853 11.947-45.653c6.827-14.080 16.213-29.44 27.307-45.227 22.613-31.147 54.187-65.707 93.013-98.56 76.373-64.853 186.027-125.44 310.187-125.44s233.813 60.587 310.187 125.44c38.827 32.853 70.4 67.413 93.013 98.56 11.093 15.787 20.48 31.147 27.307 45.227 5.973 12.8 12.373 29.013 12.373 45.653s-6.4 32.853-12.373 45.653c-6.827 14.080-16.213 29.44-27.307 44.8-22.613 31.573-54.187 66.133-93.013 98.987-76.373 64.853-186.027 125.013-310.187 125.013zM485.12 586.667c73.813 0 133.547-59.307 133.547-133.12s-59.733-133.547-133.547-133.547c-73.813 0-133.12 59.733-133.12 133.547s59.307 133.12 133.12 133.12zM131.84 348.587c-2.133 4.693-3.413 7.68-3.84 8.96 0.427 1.28 1.707 4.267 3.84 8.96 3.84 8.533 10.24 19.2 19.2 32 18.347 24.747 45.227 54.613 78.933 83.2 14.080 11.947 29.44 23.467 45.653 34.56-5.973-20.053-8.96-40.96-8.96-62.72 0-120.747 97.707-218.88 218.453-218.88s218.88 98.133 218.88 218.88c0 21.76-3.413 42.667-9.387 62.72 16.213-11.093 31.573-22.613 45.653-34.56 33.707-28.587 60.587-58.453 78.933-83.2 8.96-12.8 15.36-23.467 19.2-32 2.133-4.693 3.413-7.68 3.84-8.96-0.427-1.28-1.707-4.267-3.84-8.96-3.84-8.533-10.24-19.2-19.2-32-18.347-24.747-45.227-54.613-78.933-83.2-67.84-57.173-158.293-105.387-255.147-105.387s-187.307 48.213-255.147 105.387c-33.707 28.587-60.587 58.453-78.933 83.2-8.96 12.8-15.36 23.467-19.2 32z" />
<glyph unicode="&#xe91f;" glyph-name="favorite" d="M511.979 112.786c-186.883 106.437-291.113 212.231-341.516 304.021-51.587 93.949-47.085 173.076-18.46 229.236 58.839 115.433 226.157 152.344 328.1 23.411l31.873-40.311 31.875 40.31c101.961 128.939 269.288 92.022 328.124-23.409 28.628-56.159 33.129-135.286-18.461-229.231-50.41-91.794-154.644-197.588-341.535-304.026zM511.98 754.872c-143.409 136.274-354.971 79.952-432.384-71.922-42.486-83.351-43.066-191.079 19.629-305.26 62.139-113.162 186.031-232.614 393.096-347.063l19.656-10.864 19.659 10.864c207.072 114.449 330.967 233.901 393.109 347.063 62.703 114.179 62.123 221.908 19.636 305.26-77.414 151.877-288.983 208.193-432.402 71.922z" />
<glyph unicode="&#xe920;" glyph-name="figma" d="M369.493 917.333h284.587c101.973 0 184.747-82.773 184.747-184.747 0-57.173-26.027-108.373-66.56-142.080 40.533-34.133 66.56-85.333 66.56-142.507 0-101.973-82.773-184.747-184.747-184.747-36.693 0-70.827 10.667-99.413 29.013v-128.427c0-101.973-82.773-185.173-185.173-185.173-101.973 0-184.747 83.2-184.747 185.173 0 57.173 26.027 108.373 66.987 142.080-40.96 34.133-66.987 85.333-66.987 142.080 0 57.173 26.027 108.373 66.987 142.507-40.96 33.707-66.987 84.907-66.987 142.080 0 101.973 82.773 184.747 184.747 184.747zM654.080 633.173c55.040 0 99.413 44.373 99.413 99.413s-44.373 99.413-99.413 99.413h-99.413v-198.827h99.413zM654.080 547.84c-55.040 0-99.413-44.8-99.413-99.84 0-54.613 44.373-99.413 99.413-99.413s99.413 44.8 99.413 99.413c0 55.040-44.373 99.84-99.413 99.84zM469.333 832h-99.84c-54.613 0-99.413-44.373-99.413-99.413s44.8-99.413 99.413-99.413h99.84v198.827zM369.493 547.84c-54.613 0-99.413-44.8-99.413-99.84 0-54.613 44.8-99.413 99.413-99.413h99.84v199.253h-99.84zM469.333 263.253h-99.84c-54.613 0-99.413-44.373-99.413-99.413s44.8-99.84 99.413-99.84c55.040 0 99.84 44.8 99.84 99.84v99.413z" />
<glyph unicode="&#xe921;" glyph-name="files" d="M416 906.667c-11.52 0-22.187-4.267-30.293-12.373l-224-224c-8.107-8.107-12.373-18.773-12.373-30.293v-480c0-93.867 76.373-170.667 170.667-170.667h384c93.867 0 170.667 76.8 170.667 170.667v576c0 94.293-76.8 170.667-170.667 170.667h-288zM234.667 160v405.333h213.333c23.467 0 42.667 19.2 42.667 42.667v213.333h213.333c46.933 0 85.333-37.973 85.333-85.333v-576c0-46.933-38.4-85.333-85.333-85.333h-384c-47.36 0-85.333 38.4-85.333 85.333zM405.333 650.667h-142.507l142.507 142.507v-142.507zM341.333 384c0 23.893 18.773 42.667 42.667 42.667h256c23.467 0 42.667-18.773 42.667-42.667 0-23.467-19.2-42.667-42.667-42.667h-256c-23.893 0-42.667 19.2-42.667 42.667zM341.333 224c0 23.893 18.773 42.667 42.667 42.667h128c23.467 0 42.667-18.773 42.667-42.667 0-23.467-19.2-42.667-42.667-42.667h-128c-23.893 0-42.667 19.2-42.667 42.667z" />
<glyph unicode="&#xe922;" glyph-name="filter-1" d="M320 864c0 23.893-19.2 42.667-42.667 42.667-23.893 0-42.667-18.773-42.667-42.667v-85.333h-64c-70.827 0-128-57.173-128-128v-53.333c0-70.4 57.173-128 128-128h64v-437.333c0-23.467 18.773-42.667 42.667-42.667 23.467 0 42.667 19.2 42.667 42.667v437.333h64c70.4 0 128 57.6 128 128v53.333c0 70.827-57.6 128-128 128h-64v85.333zM746.667 906.667c23.467 0 42.667-18.773 42.667-42.667v-437.333h64c70.4 0 128-57.173 128-128v-53.333c0-70.4-57.6-128-128-128h-64v-85.333c0-23.467-19.2-42.667-42.667-42.667-23.893 0-42.667 19.2-42.667 42.667v85.333h-64c-70.827 0-128 57.6-128 128v53.333c0 70.827 57.173 128 128 128h64v437.333c0 23.893 18.773 42.667 42.667 42.667zM746.667 202.667h106.667c23.467 0 42.667 19.2 42.667 42.667v53.333c0 23.893-19.2 42.667-42.667 42.667h-213.333c-23.893 0-42.667-18.773-42.667-42.667v-53.333c0-23.467 18.773-42.667 42.667-42.667h106.667zM170.667 554.667c-23.893 0-42.667 19.2-42.667 42.667v53.333c0 23.893 18.773 42.667 42.667 42.667h213.333c23.467 0 42.667-18.773 42.667-42.667v-53.333c0-23.467-19.2-42.667-42.667-42.667h-213.333z" />
<glyph unicode="&#xe923;" glyph-name="filter-2" d="M277.333 906.667c23.467 0 42.667-18.773 42.667-42.667v-437.333h64c70.4 0 128-57.173 128-128v-53.333c0-70.4-57.6-128-128-128h-64v-85.333c0-23.467-19.2-42.667-42.667-42.667-23.893 0-42.667 19.2-42.667 42.667v85.333h-64c-70.827 0-128 57.6-128 128v53.333c0 70.827 57.173 128 128 128h64v437.333c0 23.893 18.773 42.667 42.667 42.667zM277.333 202.667h106.667c23.467 0 42.667 19.2 42.667 42.667v53.333c0 23.893-19.2 42.667-42.667 42.667h-213.333c-23.893 0-42.667-18.773-42.667-42.667v-53.333c0-23.467 18.773-42.667 42.667-42.667h106.667zM789.333 864c0 23.893-19.2 42.667-42.667 42.667-23.893 0-42.667-18.773-42.667-42.667v-85.333h-64c-70.827 0-128-57.173-128-128v-53.333c0-70.4 57.173-128 128-128h64v-437.333c0-23.467 18.773-42.667 42.667-42.667 23.467 0 42.667 19.2 42.667 42.667v437.333h64c70.4 0 128 57.6 128 128v53.333c0 70.827-57.6 128-128 128h-64v85.333zM640 554.667c-23.893 0-42.667 19.2-42.667 42.667v53.333c0 23.893 18.773 42.667 42.667 42.667h213.333c23.467 0 42.667-18.773 42.667-42.667v-53.333c0-23.467-19.2-42.667-42.667-42.667h-213.333z" />
<glyph unicode="&#xe924;" glyph-name="vertical-fluid" d="M332.373 286.293c16.64 16.64 43.52 16.64 60.16 0l76.8-76.373v476.587l-76.8-76.373c-16.64-16.64-43.52-16.64-60.16 0s-16.64 43.52 0 60.16l149.333 149.333c16.64 16.64 43.52 16.64 60.16 0l149.333-149.333c16.64-16.64 16.64-43.52 0-60.16s-43.52-16.64-60.16 0l-76.373 76.373v-476.587l76.373 76.373c16.64 16.64 43.52 16.64 60.16 0s16.64-43.52 0-60.16l-149.333-149.333c-16.64-16.64-43.52-16.64-60.16 0l-149.333 149.333c-16.64 16.64-16.64 43.52 0 60.16z" />
<glyph unicode="&#xe925;" glyph-name="github" d="M669.867-21.333c-25.6 0-42.667 17.493-42.667 42.667v183.893c0 34.133 0 34.133-12.8 46.933s-17.493 29.867-8.533 42.667c4.267 17.067 21.333 25.173 33.707 29.867 119.467 12.8 230.827 51.2 230.827 243.2 0 46.933-17.493 89.6-51.2 123.733-12.8 12.373-17.493 29.867-8.96 46.933 8.96 21.333 12.8 38.4 12.8 59.733 0 12.373 0 21.333-3.84 33.707-21.333-3.84-60.16-16.64-115.627-50.773-8.533-4.267-21.333-8.533-33.707-4.267-94.293 21.333-187.733 21.333-282.027 0-12.8-4.267-21.333 0-34.133 4.267-64 34.133-102.4 46.933-123.733 50.773 0-12.373-4.267-25.173-4.267-33.707 0-21.333 4.267-42.667 12.8-59.733 4.267-17.067 0-34.56-8.533-46.933-16.64-17.067-29.867-38.4-37.973-59.733-8.96-21.333-13.227-42.667-13.227-68.267 0-179.627 93.867-226.133 230.4-243.627 17.067 0 30.293-12.373 34.56-29.44 3.84-17.067 0-34.56-8.533-42.667-13.227-13.227-13.227-21.333-13.227-59.733v-170.667c0-25.6-17.067-42.667-42.667-42.667s-42.667 17.067-42.667 42.667v42.667c-128-17.493-179.2 55.467-217.6 106.667-17.067 21.333-29.867 42.667-42.667 46.507-21.333 4.693-38.4 30.293-29.867 51.627s29.867 38.4 51.2 29.867c42.667-12.8 68.267-46.933 94.293-81.493 33.707-46.507 64-89.173 144.64-72.107v38.4c0 17.067-4.267 38.4 0 64-119.467 25.6-243.2 93.867-243.2 315.733 0 34.133 8.533 68.267 21.333 98.133 8.533 21.333 21.333 46.507 38.4 64-3.84 21.333-8.533 42.667-8.533 67.84 0 34.56 8.533 64 21.333 94.293 4.693 21.333 12.8 29.867 26.027 29.867 12.373 3.84 72.107 12.8 187.307-55.467 94.293 21.333 192.427 21.333 286.293 0 114.773 68.267 170.667 59.307 187.307 55.467 12.8-4.267 21.333-12.8 26.027-21.333 16.64-29.867 21.333-60.16 25.6-93.867 0-21.333 0-46.933-8.96-68.267 38.827-47.36 60.16-102.4 60.16-162.133 0-226.56-128-294.4-243.2-320 3.84-13.227 3.84-29.867 0-42.667v-183.893c0-25.173-21.333-42.667-42.667-42.667z" />
<glyph unicode="&#xe926;" glyph-name="gitlab" d="M224.427 917.333c17.92 1.28 34.987-8.96 42.24-25.6l130.987-305.92h228.267l130.987 305.92c7.253 16.64 24.32 26.88 42.24 25.6 18.347-1.28 33.28-13.653 38.4-31.147l142.080-521.387c4.693-16.64-1.28-34.56-14.933-45.227l-426.667-331.52c-15.36-12.373-37.12-12.373-52.48 0l-426.667 331.52c-13.653 10.667-19.627 28.587-14.933 45.227l142.080 521.387c5.12 17.493 20.053 29.867 38.4 31.147zM236.373 745.813l-102.4-376.32 378.027-293.973 377.6 293.973-102.4 376.32-93.867-219.733c-6.827-15.36-22.187-25.6-39.253-25.6h-284.587c-17.067 0-32.427 10.24-39.253 25.6l-93.867 219.733z" />
<glyph unicode="&#xe927;" glyph-name="google" d="M521.007 511.919h421.35c4.651-25.958 6.976-50.752 6.976-74.389 0-84.075-17.63-159.142-52.885-225.203-35.26-66.061-85.53-117.687-150.818-154.884-65.284-37.193-140.156-55.791-224.623-55.791-60.83 0-118.752 11.721-173.77 35.162s-102.48 55.113-142.388 95.019c-39.907 39.91-71.581 87.373-95.022 142.391-23.441 55.014-35.161 112.939-35.161 173.769s11.721 118.754 35.161 173.772c23.441 55.018 55.115 102.48 95.022 142.388s87.37 71.581 142.388 95.022c55.018 23.441 112.94 35.161 173.77 35.161 116.237 0 216.004-38.939 299.307-116.816l-121.468-116.816c-47.654 46.106-106.935 69.16-177.839 69.16-49.98 0-96.183-12.592-138.609-37.776s-76.037-59.377-100.834-102.577c-24.797-43.201-37.195-90.372-37.195-141.516s12.399-98.317 37.195-141.517c24.797-43.2 58.408-77.393 100.834-102.575 42.426-25.186 88.629-37.777 138.609-37.777 33.711 0 64.704 4.651 92.988 13.948 28.284 9.301 51.533 20.924 69.743 34.871s34.095 29.833 47.654 47.654c13.564 17.822 23.539 34.679 29.931 50.564 6.396 15.885 10.752 30.993 13.077 45.329h-253.393v153.429z" />
<glyph unicode="&#xe928;" glyph-name="google-hangouts" d="M896 501.333c0 206.507-171.947 373.333-384 373.333-212.48 0-384-166.827-384-373.333 0-195.413 182.613-355.413 384-355.413v-124.587c232.107 110.507 384 291.84 384 480zM548.267 608h164.693v-160c0-49.493-32.853-88.747-72.96-88.747v88.747h-91.733v160zM493.653 448c0-49.493-32.853-88.747-73.387-88.747v88.747h-91.307v160h164.693v-160z" />
<glyph unicode="&#xe929;" glyph-name="grid" d="M149.333 917.333c-59.307 0-106.667-47.36-106.667-106.667v-213.333c0-58.88 47.36-106.667 106.667-106.667h213.333c58.88 0 106.667 47.787 106.667 106.667v213.333c0 59.307-47.787 106.667-106.667 106.667h-213.333zM554.667 810.667c0 59.307 47.36 106.667 106.667 106.667h213.333c58.88 0 106.667-47.36 106.667-106.667v-213.333c0-58.88-47.787-106.667-106.667-106.667h-213.333c-59.307 0-106.667 47.787-106.667 106.667v213.333zM128 810.667c0 11.947 9.387 21.333 21.333 21.333h213.333c11.52 0 21.333-9.387 21.333-21.333v-213.333c0-11.52-9.813-21.333-21.333-21.333h-213.333c-11.947 0-21.333 9.813-21.333 21.333v213.333zM661.333 832c-11.947 0-21.333-9.387-21.333-21.333v-213.333c0-11.52 9.387-21.333 21.333-21.333h213.333c11.52 0 21.333 9.813 21.333 21.333v213.333c0 11.947-9.813 21.333-21.333 21.333h-213.333zM149.333 405.333c-59.307 0-106.667-47.36-106.667-106.667v-213.333c0-58.88 47.36-106.667 106.667-106.667h213.333c58.88 0 106.667 47.787 106.667 106.667v213.333c0 59.307-47.787 106.667-106.667 106.667h-213.333zM661.333 405.333c-59.307 0-106.667-47.36-106.667-106.667v-213.333c0-58.88 47.36-106.667 106.667-106.667h213.333c58.88 0 106.667 47.787 106.667 106.667v213.333c0 59.307-47.787 106.667-106.667 106.667h-213.333zM128 298.667c0 11.947 9.387 21.333 21.333 21.333h213.333c11.52 0 21.333-9.387 21.333-21.333v-213.333c0-11.52-9.813-21.333-21.333-21.333h-213.333c-11.947 0-21.333 9.813-21.333 21.333v213.333zM640 298.667c0 11.947 9.387 21.333 21.333 21.333h213.333c11.52 0 21.333-9.387 21.333-21.333v-213.333c0-11.52-9.813-21.333-21.333-21.333h-213.333c-11.947 0-21.333 9.813-21.333 21.333v213.333z" />
<glyph unicode="&#xe92a;" glyph-name="hand-wash" d="M1006.507 724.907c-11.52 2.56-22.613-5.547-25.173-17.493l-27.307-146.773c-13.227 6.4-23.467 17.067-35.413 29.867-15.787 17.493-35.413 38.4-66.56 46.080-2.56 49.493-22.613 95.573-58.027 130.987l-71.253 70.4c-40.107 39.253-95.573 61.013-151.893 58.027l-255.147-11.947c-9.813-0.427-17.92-7.68-20.053-17.067-5.12-26.453 0.427-52.907 15.787-75.093 15.787-22.187 39.68-36.693 66.56-40.533l53.76-7.68c8.96-1.28 16.213-7.253 19.2-15.787 1.28-3.84 3.413-14.507-5.973-23.467l-133.547-131.84c-5.973 5.12-11.947 11.093-18.347 17.92-20.053 22.187-45.653 49.493-93.867 49.493-48.64 0-73.813-27.307-94.293-49.493-11.947-12.8-21.76-23.467-35.413-29.867l-27.307 146.773c-2.56 11.947-13.653 20.053-25.173 17.493-11.52-2.133-19.2-14.080-17.067-26.453l117.76-625.493c8.107-42.24 43.093-72.96 83.627-72.96h620.8c40.533 0 75.52 30.72 83.627 72.96l117.76 625.493c2.133 12.373-5.547 24.32-17.067 26.453zM474.88 674.133c17.92 17.493 24.32 43.52 16.64 67.413-8.107 23.893-28.587 40.96-53.76 44.373l-53.76 7.68c-15.36 2.133-28.587 10.24-37.547 23.040-5.547 7.68-8.96 16.213-9.813 25.6l235.947 11.093c44.373 2.133 88.747-14.507 120.32-46.080l71.253-69.973c26.453-26.453 41.813-61.44 45.227-98.133-38.827-5.12-60.587-29.013-78.507-48.64-18.347-20.053-32.853-35.84-62.293-35.84-29.867 0-44.373 15.787-62.72 35.84-20.053 22.187-45.227 49.493-93.867 49.493-48.213 0-73.387-27.307-93.867-49.493-18.347-20.053-32.853-35.84-62.293-35.84-0.427 0-0.853 0.427-1.28 0.427l120.32 119.040zM570.88 420.693c-8.107 8.107-21.76 8.107-30.293 0l-159.147-157.44c-9.387-9.387-24.747-9.387-33.707 0-4.693 4.267-7.253 9.813-7.253 16.213 0 5.973 2.56 11.52 6.827 15.787l159.573 158.293c8.533 8.107 8.533 21.76 0.427 29.867-8.533 8.533-21.76 8.533-30.293 0.427l-159.573-157.867c0 0-0.427-0.427-0.427-0.427l-31.147-31.147c-9.387-8.96-24.747-8.96-34.133 0-4.267 4.693-6.827 10.24-6.827 16.64 0 5.973 2.56 11.947 6.827 16.213l159.573 157.44c8.533 8.533 8.533 22.187 0 30.293-3.413 3.84-8.107 5.547-12.8 5.973 22.613 9.813 37.973 26.453 51.2 40.96 18.347 20.053 32.853 35.413 62.293 35.413 29.867 0 44.373-15.36 62.72-35.413 20.053-22.187 45.227-49.92 93.867-49.92 48.213 0 73.387 27.733 93.867 49.92 14.080 15.36 26.453 28.16 44.8 33.28-5.973-30.293-20.907-57.6-43.093-79.787l-255.147-252.16c-9.387-9.387-24.747-9.387-34.133 0-4.267 4.267-6.827 9.813-6.827 16.213 0 5.973 2.56 11.947 6.827 16.213l96 94.72c8.107 8.107 8.533 21.76 0 30.293zM318.293 518.827c10.667-3.84 23.040-6.827 37.547-6.827 9.387 0 17.92 1.707 25.6 3.413 0 0 0 0 0 0l-127.573-126.293c-9.387-8.96-24.747-8.96-33.707 0-4.693 4.267-6.827 10.24-6.827 16.213 0 6.4 2.133 11.947 6.827 16.64l98.133 96.853zM864 81.92c-4.267-20.907-21.76-39.253-41.813-39.253h-620.8c-20.053 0-37.547 18.347-41.813 39.253l-81.92 436.48c26.453 8.96 43.52 26.88 58.88 43.52 18.347 20.053 32.853 35.413 62.72 35.413 29.44 0 43.947-15.787 62.293-35.413 5.973-6.4 12.373-13.227 19.627-19.627l-91.307-90.027c-12.373-12.373-19.2-29.013-19.2-46.933 0-17.493 6.827-34.133 19.2-46.507 6.4-6.4 14.080-11.093 21.76-14.080-5.973-10.24-9.387-21.76-9.387-33.707 0-17.92 7.253-34.133 19.627-46.933 21.76-21.76 55.467-24.747 81.067-9.813 3.413-8.107 8.107-15.36 14.507-21.76 13.227-12.373 29.867-19.2 46.933-19.2s34.133 6.827 46.933 19.2l20.053 20.053c3.413-7.253 7.68-14.080 13.653-20.053 26.027-25.6 67.84-25.173 93.867 0l255.147 252.587c29.867 29.44 48.64 66.56 55.893 107.093 14.080-5.973 25.173-17.067 37.12-30.293 15.36-16.64 32.427-34.56 58.88-43.52l-81.92-436.48z" />
<glyph unicode="&#xe92b;" glyph-name="hanger" d="M974.234 272.685c0 0 0 0 0 0l-368.694 230.424c-6.428 4.018-13.857 6.149-21.437 6.149h-31.652v17.193c62.598 17.674 108.611 75.309 108.611 143.487 0 82.193-66.87 149.063-149.062 149.063-82.195 0-149.062-66.87-149.062-149.063 0-22.34 18.111-40.451 40.451-40.451s40.452 18.111 40.452 40.451c0 37.583 30.574 68.16 68.159 68.16 37.583 0 68.157-30.577 68.157-68.16s-30.577-68.159-68.157-68.159c-22.34 0-40.451-18.111-40.451-40.451v-52.069h-31.652c-7.58 0-15.009-2.131-21.437-6.149l-368.693-230.424c-31.161-19.475-49.767-53.043-49.767-89.792 0-58.387 47.502-105.888 105.888-105.888h812.224c58.387 0 105.888 47.501 105.888 105.888 0 36.749-18.605 70.317-49.766 89.792v0zM918.112 157.907h-812.224c-13.777 0-24.985 11.206-24.985 24.986 0 8.672 4.39 16.595 11.742 21.19l358.851 224.271h121.005l358.852-224.271c7.354-4.595 11.744-12.518 11.744-21.19 0-13.779-11.213-24.986-24.986-24.986v0z" />
<glyph unicode="&#xe92c;" glyph-name="history" d="M206.933 896c0 23.893-18.773 42.667-42.667 42.667-23.467 0-42.667-18.773-42.667-42.667v-192c0-23.467 19.2-42.667 42.667-42.667h192.427c23.467 0 42.667 19.2 42.667 42.667 0 23.893-19.2 42.667-42.667 42.667h-86.187c65.707 53.76 149.76 85.333 241.493 85.333 212.053 0 384-171.52 384-384 0-212.053-171.947-384-384-384-212.48 0-384 171.947-384 384 0 23.893-19.2 42.667-42.667 42.667-23.893 0-42.667-18.773-42.667-42.667 0-258.987 209.92-469.333 469.333-469.333 258.987 0 469.333 210.347 469.333 469.333 0 259.413-210.347 469.333-469.333 469.333-116.48 0-223.147-42.24-305.067-112.213v90.88zM550.4 682.667c0 21.333-17.493 38.827-38.4 38.827-21.333 0-38.4-17.493-38.4-38.827v-234.667c0-9.813 3.84-19.627 11.093-26.88l128-128c14.933-14.933 39.253-14.933 54.187 0s14.933 39.253 0 54.187l-116.48 116.907v218.453z" />
<glyph unicode="&#xe92d;" glyph-name="home" d="M543.531 762.382c-20.619 5.583-42.35 5.583-62.969 0-21.465-5.812-42.283-21.039-101.646-67.211l-104.408-81.206c-38.207-29.716-51.034-40.135-60.102-52.395-8.714-11.781-15.205-25.054-19.154-39.165-4.11-14.684-4.459-31.206-4.459-79.609v-265.831c0-30.943 0.436-37.515 1.729-41.779 3.894-12.83 13.937-22.877 26.771-26.769 4.263-1.295 10.832-1.729 41.774-1.729h25.098c5.138 0 6.254 0.012 6.99 0.048 20.629 1.012 37.124 17.51 38.138 38.141 0.036 0.735 0.048 1.849 0.048 6.987v115.453c0 99.799 80.905 180.704 180.706 180.704s180.707-80.905 180.707-180.704v-115.453c0-5.138 0.012-6.252 0.048-6.987 1.012-20.631 17.51-37.129 38.135-38.141 0.741-0.036 1.855-0.048 6.993-0.048h25.094c30.943 0 37.515 0.434 41.779 1.729 12.83 3.891 22.877 13.938 26.769 26.769 1.295 4.265 1.729 10.836 1.729 41.779v265.831c0 48.403-0.349 64.925-4.457 79.609-3.951 14.111-10.445 27.384-19.155 39.165-9.065 12.26-21.896 22.679-60.103 52.395l-104.406 81.206c-59.366 46.172-80.183 61.398-101.649 67.211zM459.572 839.904c34.365 9.305 70.585 9.305 104.949 0 39.084-10.582 73.376-37.282 123.131-76.019 2.247-1.749 4.524-3.521 6.837-5.318l104.406-81.206c1.44-1.123 2.867-2.229 4.271-3.321 32.298-25.105 54.645-42.471 71.096-64.711 14.523-19.636 25.341-41.756 31.925-65.275 7.457-26.638 7.445-54.938 7.433-95.846 0-1.779-0.006-3.583-0.006-5.411v-265.831c0-1.705 0.006-3.385 0.006-5.054 0.030-22.944 0.054-42.755-5.192-60.037-11.68-38.502-41.809-68.632-80.312-80.312-17.282-5.24-37.093-5.222-60.037-5.192-1.669 0-3.349 0.006-5.054 0.006h-25.937c-3.819 0-7.102-0.006-10.089 0.145-61.886 3.036-111.373 52.525-114.413 114.411-0.147 2.988-0.146 6.27-0.145 10.089v116.296c0 55.441-44.947 100.39-100.392 100.39s-100.392-44.949-100.392-100.39l0.001-116.296c0.001-3.819 0.001-7.102-0.145-10.089-3.041-61.886-52.528-111.375-114.415-114.411-2.985-0.151-6.269-0.145-10.089-0.145h-25.94c-1.7 0-3.385-0.006-5.053-0.006-22.941-0.030-42.754-0.048-60.035 5.192-38.503 11.68-68.633 41.809-80.313 80.312-5.242 17.282-5.218 37.093-5.191 60.037 0.002 1.669 0.004 3.349 0.004 5.054v265.831c0 1.828-0.001 3.632-0.001 5.412-0.013 40.908-0.023 69.208 7.433 95.846 6.583 23.519 17.402 45.639 31.925 65.275 16.449 22.24 38.794 39.607 71.093 64.711 1.405 1.092 2.829 2.199 4.272 3.321l104.408 81.206c2.311 1.797 4.588 3.57 6.833 5.318 49.754 38.737 84.048 65.437 123.131 76.019z" />
<glyph unicode="&#xe92e;" glyph-name="ic-call-center" d="M612.053 480c10.88 0 19.84 8.96 19.84 20.053s-8.96 20.053-19.84 20.053c-11.093 0-20.053-8.96-20.053-20.053s8.96-20.053 20.053-20.053zM411.947 480c11.093 0 20.053 8.96 20.053 20.053s-8.96 20.053-20.053 20.053c-11.093 0-20.053-8.96-20.053-20.053s8.96-20.053 20.053-20.053zM71.893 0v-43.947c0-11.093 8.96-20.053 20.053-20.053h839.893c11.093 0 20.053 8.96 20.053 20.053v43.947c0 79.573-44.587 153.173-127.36 183.253 29.867 26.027 48 64.427 48 105.6 0 11.093-8.96 20.053-20.053 20.053-48 0-88.533 34.133-98.347 79.147h57.813c33.067 0 59.947 26.88 59.947 59.947v92.16c0 26.027-16.64 48.213-39.893 56.533v43.307c0 176.64-143.573 320-320 320-176.853 0-320-142.933-320-320v-43.307c-23.467-8.32-40.107-30.507-40.107-56.533v-92.16c0-33.067 26.88-59.947 60.16-59.947h57.6c-9.813-45.013-50.347-79.147-98.347-79.147-11.093 0-20.053-8.96-20.053-20.053 0-41.387 18.347-79.573 48.213-105.6-82.347-30.293-127.573-104.533-127.573-183.253zM830.933 270.507c-6.187-33.493-29.44-61.867-61.653-74.667l-121.173 15.787-12.8 50.56c37.76 22.613 67.84 54.4 87.893 91.947 18.987-43.52 59.307-75.947 107.733-83.627zM672.213 600.107c-55.253 0-100.267 45.44-100.267 101.547 0 10.88-8.747 19.84-19.84 19.84s-20.053-8.96-20.053-19.84c0-56.107-45.013-101.547-100.267-101.547h-119.893c0 110.293 89.813 199.893 200.107 199.893 110.507 0 199.893-89.387 199.893-199.893h-39.68zM311.893 560h119.893c50.987 0 95.787 27.733 120.32 68.907 24.533-41.173 69.12-68.907 120.107-68.907h39.68v-91.947c0-75.52-41.813-144-109.227-178.347-28.373-14.293-58.88-21.547-90.667-21.547s-62.293 7.253-90.453 21.547c-18.773 9.387-36.053 21.973-50.987 36.907-37.76 37.76-58.667 88.107-58.667 141.44v91.947zM425.813 244.053c27.307-10.667 56.107-16 86.187-16s59.093 5.547 86.613 16.213l12.587-49.707c-6.613-49.493-48.64-86.4-98.987-86.4-50.56 0-92.373 36.907-99.2 86.4l12.8 49.493zM832 448c0-10.88-8.96-19.84-20.053-19.84h-59.947v131.84h59.947c11.093 0 20.053-8.747 20.053-19.84v-92.16zM512 920.107c154.24 0 279.893-125.653 279.893-280.107v-39.893h-39.893c0 132.48-107.307 240-240 240-132.48 0-240-107.733-240-240h-40.107v39.893c0 154.88 125.227 280.107 280.107 280.107zM192 448v92.16c0 10.88 8.96 19.84 20.053 19.84h59.947v-131.84h-59.947c-11.093 0-20.053 8.96-20.053 19.84zM300.587 354.133c10.88-20.267 24.96-39.040 41.6-55.68 14.080-14.080 29.867-26.453 46.933-36.48l-13.013-50.347-121.387-15.787c-32.427 12.8-55.467 41.173-61.653 74.667 48.213 7.68 88.747 40.107 107.52 83.627zM252.587 155.093l2.133 0.427c0 0 0 0 0 0l122.24 15.787c16.213-60.16 70.827-103.253 135.253-103.253 64.213 0 118.827 43.093 135.040 103.253 6.187-0.853-32 4.267 124.587-16.213 87.68-11.307 140.16-77.013 140.16-155.093v-23.893h-800v23.893c0 76.587 52.267 143.787 140.587 155.093zM458.453 342.613c16.853-7.893 34.773-11.947 53.547-11.947 18.133 0 35.84 3.84 52.48 11.52 10.027 4.48 14.293 16.427 9.813 26.453-4.693 10.027-16.64 14.507-26.667 9.813-11.307-5.12-23.253-7.68-35.627-7.68-12.8 0-24.96 2.56-36.48 8.107-10.027 4.693-21.973 0.427-26.667-9.6s-0.427-21.973 9.6-26.667zM692.053 28.16h80c10.88 0 19.84 8.96 19.84 19.84 0 11.093-8.96 20.053-19.84 20.053h-80c-11.093 0-20.053-8.96-20.053-20.053 0-10.88 8.96-19.84 20.053-19.84zM851.84 68.053c11.093 0 20.053-8.96 20.053-20.053 0-10.88-8.96-19.84-20.053-19.84-10.88 0-19.84 8.96-19.84 19.84 0 11.093 8.96 20.053 19.84 20.053z" />
<glyph unicode="&#xe92f;" glyph-name="ic-delivery" d="M864 228.053c-22.187 0-40.107-17.92-40.107-39.893 0-22.187 17.92-40.107 40.107-40.107 21.973 0 39.893 17.92 39.893 40.107 0 21.973-17.92 39.893-39.893 39.893zM843.947 388.053c-11.093 0-20.053-8.96-20.053-20.053 0-10.88 8.96-19.84 20.053-19.84s20.053 8.96 20.053 19.84c0 11.093-8.96 20.053-20.053 20.053zM251.947 228.053c-22.187 0-40.107-17.92-40.107-39.893 0-22.187 17.92-40.107 40.107-40.107 21.973 0 39.893 17.92 39.893 40.107 0 21.973-17.92 39.893-39.893 39.893zM939.733 466.773l-34.347 138.027c12.16 11.733 18.56 27.307 18.56 43.307 0 33.067-26.88 59.947-59.947 59.947h-160v59.947c0 33.28-27.093 60.16-60.16 60.16h-583.893c-33.067 0-59.947-26.88-59.947-60.16v-519.893c0-33.067 26.88-59.947 59.947-59.947h71.893c0-66.133 53.973-120.107 120.107-120.107s119.893 53.973 119.893 120.107h372.053c0-66.133 53.76-120.107 120.107-120.107 66.133 0 119.893 53.973 119.893 120.107 0 1.067 0 2.133 0 3.413 23.253 8.107 40.107 30.507 40.107 56.533v119.893c0 49.92-36.48 91.093-84.267 98.773zM868.267 588.16l30.080-120.107h-166.187l45.867 45.867c7.893 7.893 7.893 20.48 0 28.373-7.893 7.68-20.48 7.68-28.373 0l-45.653-45.867v91.733h164.267zM883.84 648.107c0-11.093-8.96-20.053-19.84-20.053h-160v40.107h160c10.88 0 19.84-8.96 19.84-20.053zM251.947 108.16c-44.16 0-80 35.84-80 80 0 44.587 36.48 80 80 80s80-35.413 80-80c0-44.16-35.84-80-80-80zM365.013 228.053c-16.64 47.36-61.867 80-113.067 80s-96.427-32.853-113.28-80h-78.72c-11.093 0-20.053 8.96-20.053 20.053v519.893c0 11.093 8.96 20.053 20.053 20.053h583.893c11.093 0 20.053-8.96 20.053-20.053v-539.947h-298.88zM864 108.16c-44.16 0-80 35.84-80 80 0 44.587 36.48 80 80 80s80-35.413 80-80c0-44.16-36.053-80-80-80zM975.573 231.893c-17.707 45.227-61.867 76.16-111.573 76.16-51.413 0-96.64-32.853-113.28-80h-46.72v200.107h219.947c26.027 0 48.213-16.853 56.533-40.107h-56.533c-11.093 0-20.053-8.96-20.053-20.053 0-10.88 8.96-19.84 20.053-19.84h59.947v-100.053c0-6.613-3.2-12.587-8.32-16.213zM352 708.053c-99.413 0-180.053-80.64-180.053-180.053 0-99.2 80.64-179.84 180.053-179.84 99.2 0 179.84 80.64 179.84 179.84 0 99.413-80.64 180.053-179.84 180.053zM352 388.053c-77.227 0-140.16 62.933-140.16 139.947 0 77.227 62.933 140.16 140.16 140.16 77.013 0 139.947-62.933 139.947-140.16 0-77.013-62.933-139.947-139.947-139.947zM432 548.053h-60.16v59.947c0 11.093-8.96 20.053-19.84 20.053-11.093 0-20.053-8.96-20.053-20.053v-80c0-10.88 8.96-19.84 20.053-19.84h80c10.88 0 19.84 8.96 19.84 19.84 0 11.093-8.96 20.053-19.84 20.053z" />
<glyph unicode="&#xe930;" glyph-name="ic-shield" horiz-adv-x="1022" d="M510.72 378.027c11.093 0 20.053 8.96 20.053 20.053s-8.96 20.053-20.053 20.053c-11.093 0-20.053-8.96-20.053-20.053s8.96-20.053 20.053-20.053zM499.2-58.24c3.627-2.347 7.68-3.627 11.733-3.627s8.107 1.28 11.52 3.627c203.947 145.707 408.533 209.493 408.533 509.013v370.773c0 10.453-8.107 18.987-18.347 19.84l-52.053 4.48c-119.253 9.813-236.373 49.067-338.987 113.28-6.613 4.053-14.72 4.053-21.333 0-102.613-64.213-219.947-103.467-338.987-113.28l-52.053-4.48c-10.453-0.853-18.347-9.387-18.347-19.84v-370.773c0-308.053 233.387-384 408.32-509.013zM130.986 803.2l33.493 2.773c121.387 10.027 240.853 49.067 346.453 112.64 105.387-63.573 224.853-102.613 346.24-112.64l33.707-2.773v-352.427c0-270.080-179.84-328.107-379.947-468.267-175.573 122.027-379.947 191.147-379.947 468.267v352.427zM499.2 87.253c7.253-5.12 16.427-4.693 23.253 0.427 181.12 125.44 288.427 166.613 288.427 363.093v262.187c0 10.027-7.253 18.347-17.067 19.84-95.573 14.293-187.733 44.16-273.707 88.533-6.187 3.2-13.653 2.773-19.2-0.427-85.76-44.16-177.707-73.813-273.067-88.107-9.6-1.493-16.853-9.813-16.853-19.84v-262.187c0-198.4 117.333-247.040 288.213-363.52zM250.88 695.893c83.2 14.080 163.627 39.467 239.787 75.52v-293.333c0-11.093 8.96-20.053 20.053-20.053s20.053 8.96 20.053 20.053v293.547c76.16-36.053 156.8-61.44 240.213-75.733v-245.12c0-162.56-76.16-198.187-240.213-308.907v176.213c0 11.093-8.96 20.053-20.053 20.053s-20.053-8.96-20.053-20.053v-176.853c-153.173 101.973-239.787 145.493-239.787 309.547v245.12z" />
<glyph unicode="&#xe931;" glyph-name="info" d="M512 917.333c-259.413 0-469.333-209.92-469.333-469.333 0-258.987 209.92-469.333 469.333-469.333 258.987 0 469.333 210.347 469.333 469.333 0 259.413-210.347 469.333-469.333 469.333zM128 448c0 212.48 171.52 384 384 384 212.053 0 384-171.52 384-384 0-212.053-171.947-384-384-384-212.48 0-384 171.947-384 384zM554.667 661.333c0-23.467-19.2-42.667-42.667-42.667-23.893 0-42.667 19.2-42.667 42.667 0 23.893 18.773 42.667 42.667 42.667 23.467 0 42.667-18.773 42.667-42.667zM512 554.667c23.467 0 42.667-18.773 42.667-42.667v-256c0-23.467-19.2-42.667-42.667-42.667-23.893 0-42.667 19.2-42.667 42.667v256c0 23.893 18.773 42.667 42.667 42.667z" />
<glyph unicode="&#xe932;" glyph-name="iPhone" d="M362.667 835.413c-35.413 0-64-28.587-64-64v-646.4c0-35.413 28.587-64 64-64h298.667c34.987 0 64 28.587 64 64v646.4c0 35.413-29.013 64-64 64h-3.84l-10.24-24.747c-6.827-15.787-22.187-26.453-39.253-26.453h-192c-17.493 0-32.853 10.667-39.68 26.453l-10.24 24.747h-3.413zM213.333 771.413c0 82.773 66.56 149.333 149.333 149.333h298.667c82.347 0 149.333-66.56 149.333-149.333v-646.4c0-82.773-66.987-149.333-149.333-149.333h-298.667c-82.773 0-149.333 66.56-149.333 149.333v646.4z" />
<glyph unicode="&#xe933;" glyph-name="ironing" d="M1023.573 130.987l-78.080 584.533c-5.547 42.24-41.813 73.813-84.48 73.813h-498.347c-11.947 0-21.333-9.387-21.333-21.333 0-11.52 9.387-21.333 21.333-21.333h498.347c21.333 0 39.68-15.787 42.24-36.693l29.44-219.307h-570.027c-200.107 0-362.667-162.56-362.667-362.667 0-11.52 9.387-21.333 21.333-21.333h981.333c5.973 0 11.947 2.987 15.787 7.253 4.267 4.693 5.973 11.093 5.12 17.067zM43.093 149.333c11.093 166.827 150.187 298.667 319.573 298.667h575.573l39.68-298.667h-934.827z" />
<glyph unicode="&#xe934;" glyph-name="ironing-1" d="M945.493 715.52l78.080-584.533c0.853-5.973-0.853-12.373-5.12-17.067-3.84-4.267-9.813-7.253-15.787-7.253h-981.333c-11.947 0-21.333 9.813-21.333 21.333 0 200.107 162.56 362.667 362.667 362.667h570.027l-29.44 219.307c-2.56 20.907-20.907 36.693-42.24 36.693h-498.347c-11.947 0-21.333 9.813-21.333 21.333 0 11.947 9.387 21.333 21.333 21.333h498.347c42.667 0 78.933-31.573 84.48-73.813zM362.667 448c-169.387 0-308.48-131.84-319.573-298.667h934.827l-39.68 298.667h-575.573zM554.667 298.667c0-23.467-19.2-42.667-42.667-42.667-23.893 0-42.667 19.2-42.667 42.667 0 23.893 18.773 42.667 42.667 42.667 23.467 0 42.667-18.773 42.667-42.667z" />
<glyph unicode="&#xe935;" glyph-name="ironing-2" d="M1023.573 130.987l-78.080 584.533c-5.547 42.24-41.813 73.813-84.48 73.813h-498.347c-11.947 0-21.333-9.387-21.333-21.333 0-11.52 9.387-21.333 21.333-21.333h498.347c21.333 0 39.68-15.787 42.24-36.693l29.44-219.307h-570.027c-200.107 0-362.667-162.56-362.667-362.667 0-11.52 9.387-21.333 21.333-21.333h981.333c5.973 0 11.947 2.987 15.787 7.253 4.267 4.693 5.973 11.093 5.12 17.067zM43.093 149.333c11.093 166.827 150.187 298.667 319.573 298.667h575.573l39.68-298.667h-934.827zM426.667 256c23.467 0 42.667 19.2 42.667 42.667 0 23.893-19.2 42.667-42.667 42.667-23.893 0-42.667-18.773-42.667-42.667 0-23.467 18.773-42.667 42.667-42.667zM640 298.667c0-23.467-19.2-42.667-42.667-42.667-23.893 0-42.667 19.2-42.667 42.667 0 23.893 18.773 42.667 42.667 42.667 23.467 0 42.667-18.773 42.667-42.667z" />
<glyph unicode="&#xe936;" glyph-name="ironing-3" d="M945.493 715.52l78.080-584.533c0.853-5.973-0.853-12.373-5.12-17.067-3.84-4.267-9.813-7.253-15.787-7.253h-981.333c-11.947 0-21.333 9.813-21.333 21.333 0 200.107 162.56 362.667 362.667 362.667h570.027l-29.44 219.307c-2.56 20.907-20.907 36.693-42.24 36.693h-498.347c-11.947 0-21.333 9.813-21.333 21.333 0 11.947 9.387 21.333 21.333 21.333h498.347c42.667 0 78.933-31.573 84.48-73.813zM362.667 448c-169.387 0-308.48-131.84-319.573-298.667h934.827l-39.68 298.667h-575.573zM384 298.667c0-23.467-19.2-42.667-42.667-42.667-23.893 0-42.667 19.2-42.667 42.667 0 23.893 18.773 42.667 42.667 42.667 23.467 0 42.667-18.773 42.667-42.667zM512 256c23.467 0 42.667 19.2 42.667 42.667 0 23.893-19.2 42.667-42.667 42.667-23.893 0-42.667-18.773-42.667-42.667 0-23.467 18.773-42.667 42.667-42.667zM725.333 298.667c0-23.467-19.2-42.667-42.667-42.667-23.893 0-42.667 19.2-42.667 42.667 0 23.893 18.773 42.667 42.667 42.667 23.467 0 42.667-18.773 42.667-42.667z" />
<glyph unicode="&#xe937;" glyph-name="layouts" d="M492.8 913.067c11.947 5.973 26.027 5.973 37.973 0l426.667-213.333c14.507-7.253 23.893-22.187 23.893-38.4 0-15.787-9.387-30.72-23.893-37.973l-426.667-213.333c-11.947-5.973-26.027-5.973-37.973 0l-426.667 213.333c-14.507 7.253-23.467 22.187-23.467 37.973 0 16.213 8.96 31.147 23.467 38.4l426.667 213.333zM180.48 661.333l331.52-165.547 331.093 165.547-331.093 165.973-331.52-165.973zM46.933 467.2c10.667 21.333 36.267 29.867 57.173 19.2l407.893-203.947 407.467 203.947c20.907 10.667 46.507 2.133 57.173-19.2 10.667-20.907 2.133-46.507-19.2-57.173l-426.667-213.333c-11.947-5.973-26.027-5.973-37.973 0l-426.667 213.333c-21.333 10.667-29.867 36.267-19.2 57.173zM104.107 273.067c-20.907 10.667-46.507 2.133-57.173-19.2-10.667-20.907-2.133-46.507 19.2-57.173l426.667-213.333c11.947-5.973 26.027-5.973 37.973 0l426.667 213.333c21.333 10.667 29.867 36.267 19.2 57.173-10.667 21.333-36.267 29.867-57.173 19.2l-407.467-203.947-407.893 203.947z" />
<glyph unicode="&#xe938;" glyph-name="like" d="M605.013 821.333c-5.973 0-11.52-2.987-14.507-8.107l-0.427-0.427-195.413-317.44v-420.693h366.080c8.107 0 14.507 5.547 16.213 13.227l0.427 0.853 108.8 424.96c1.707 10.24-5.973 19.627-16.64 19.627h-165.547c-28.16 0-56.32 9.387-76.373 29.44-21.76 20.907-31.573 51.2-25.173 83.627l30.72 155.307c1.707 10.24-5.973 19.627-16.64 19.627h-11.52zM309.333 74.667v390.4h-151.467c-8.96 0-16.64-7.68-16.64-16.64l-2.56-356.693c-0.427-9.387 7.253-17.067 16.64-17.067h154.027zM328.107 550.4l189.013 306.347c18.347 31.147 51.627 49.92 87.893 49.92h11.52c64.427 0 112.64-58.453 100.267-121.6l-30.72-155.307c-0.427-2.987-0.427-3.84 0-4.267 0-0.427 0-0.853 0.853-1.707 1.707-1.707 7.253-5.12 17.067-5.12h165.547c65.28 0 113.92-60.16 99.84-124.16l-0.427-0.427-108.8-425.387c-10.667-46.507-51.627-79.36-99.413-79.36h-605.44c-56.747 0-102.827 46.507-101.973 103.253l2.56 356.267c0.427 56.32 46.080 101.547 101.973 101.547h170.24z" />
<glyph unicode="&#xe939;" glyph-name="list" d="M149.333 917.333c-59.307 0-106.667-47.36-106.667-106.667v-213.333c0-58.88 47.36-106.667 106.667-106.667h725.333c58.88 0 106.667 47.787 106.667 106.667v213.333c0 59.307-47.787 106.667-106.667 106.667h-725.333zM128 810.667c0 11.947 9.387 21.333 21.333 21.333h725.333c11.52 0 21.333-9.387 21.333-21.333v-213.333c0-11.52-9.813-21.333-21.333-21.333h-725.333c-11.947 0-21.333 9.813-21.333 21.333v213.333zM149.333 405.333c-59.307 0-106.667-47.36-106.667-106.667v-213.333c0-58.88 47.36-106.667 106.667-106.667h725.333c58.88 0 106.667 47.787 106.667 106.667v213.333c0 59.307-47.787 106.667-106.667 106.667h-725.333zM128 298.667c0 11.947 9.387 21.333 21.333 21.333h725.333c11.52 0 21.333-9.387 21.333-21.333v-213.333c0-11.52-9.813-21.333-21.333-21.333h-725.333c-11.947 0-21.333 9.813-21.333 21.333v213.333z" />
<glyph unicode="&#xe93a;" glyph-name="lock" d="M512 906.667c163.413 0 296.107-131.413 298.24-294.4 92.16-23.893 160.427-107.093 160.427-206.933v-202.667c0-117.76-95.573-213.333-213.333-213.333h-490.667c-118.187 0-213.333 95.573-213.333 213.333v202.667c0 99.84 67.84 183.040 160 206.933 2.133 162.987 134.827 294.4 298.667 294.4zM512 821.333c-114.347 0-207.787-89.6-213.333-202.667h426.24c-5.547 113.067-98.987 202.667-212.907 202.667zM885.333 202.667v202.667c0 70.827-57.6 128-128 128h-490.667c-70.827 0-128-57.173-128-128v-202.667c0-70.4 57.173-128 128-128h490.667c70.4 0 128 57.6 128 128zM554.667 384c0 23.893-19.2 42.667-42.667 42.667-23.893 0-42.667-18.773-42.667-42.667v-128c0-23.467 18.773-42.667 42.667-42.667 23.467 0 42.667 19.2 42.667 42.667v128z" />
<glyph unicode="&#xe93b;" glyph-name="login" d="M277.333 32c0 23.893 18.773 42.667 42.667 42.667h437.333c70.4 0 128 57.6 128 128v490.667c0 70.827-57.6 128-128 128h-437.333c-23.893 0-42.667 19.2-42.667 42.667 0 23.893 18.773 42.667 42.667 42.667h437.333c117.76 0 213.333-95.147 213.333-213.333v-490.667c0-117.76-95.573-213.333-213.333-213.333h-437.333c-23.893 0-42.667 19.2-42.667 42.667zM765.867 418.133c8.107 8.107 12.8 18.773 12.8 29.867 0 11.52-4.693 22.187-12.8 30.293l-192 192c-16.64 16.64-43.52 16.64-60.16 0s-16.64-43.52 0-60.16l119.040-119.467h-536.747c-23.893 0-42.667-18.773-42.667-42.667 0-23.467 18.773-42.667 42.667-42.667h536.747l-119.040-119.040c-16.64-16.64-16.64-43.52 0-60.16s43.52-16.64 60.16 0l192 192z" />
<glyph unicode="&#xe93c;" glyph-name="mail" d="M970.667 192v469.333c0 70.827-57.6 128-128 128h-661.333c-70.827 0-128-57.173-128-128v-469.333c0-70.4 57.173-128 128-128h661.333c70.4 0 128 57.6 128 128zM885.333 565.333v-373.333c0-23.467-19.2-42.667-42.667-42.667h-661.333c-23.893 0-42.667 19.2-42.667 42.667v373.333l301.227-205.227c43.52-29.44 100.267-29.44 143.787 0l301.653 205.227zM884.48 668.16l-348.587-237.227c-14.507-9.813-33.707-9.813-48.213 0l-348.587 237.227c2.987 20.48 20.48 35.84 42.24 35.84h661.333c21.333 0 38.827-15.36 41.813-35.84z" />
<glyph unicode="&#xe93d;" glyph-name="mark" d="M925.867 734.293c16.64-16.64 16.64-43.52 0-60.16l-512-512c-16.64-16.64-43.52-16.64-60.16 0l-256 256c-16.64 16.64-16.64 43.52 0 60.16s43.52 16.64 60.16 0l226.133-225.707 481.707 481.707c16.64 16.64 43.52 16.64 60.16 0z" />
<glyph unicode="&#xe93e;" glyph-name="e-mail" d="M138.667 448c0-206.080 166.827-373.333 373.333-373.333 23.467 0 42.667-18.773 42.667-42.667 0-23.467-19.2-42.667-42.667-42.667-253.44 0-458.667 205.653-458.667 458.667 0 253.44 205.227 458.667 458.667 458.667 253.013 0 458.667-205.227 458.667-458.667 0-47.787-8.533-116.907-31.147-175.787-20.48-55.040-62.293-122.88-139.52-122.88-37.973 0-75.947 10.24-103.253 40.107-19.2 21.333-29.44 49.067-33.28 79.787-40.96-34.987-93.867-55.893-151.467-55.893-129.707 0-234.667 105.387-234.667 234.667 0 129.707 104.96 234.667 234.667 234.667 58.453 0 111.787-21.333 153.173-56.747 6.4 14.933 21.333 24.747 38.827 24.747 23.467 0 42.667-18.773 42.667-42.667v-303.787c0-34.987 7.253-50.773 13.653-57.6 5.12-5.547 15.36-11.947 39.68-11.947 18.347 0 40.533 16.64 59.733 67.413 17.92 46.933 25.6 105.813 25.6 145.92 0 206.507-167.253 373.333-373.333 373.333-206.507 0-373.333-166.827-373.333-373.333zM661.333 448c0 82.773-66.987 149.333-149.333 149.333-82.773 0-149.333-66.56-149.333-149.333 0-82.347 66.56-149.333 149.333-149.333 82.347 0 149.333 66.987 149.333 149.333z" />
<glyph unicode="&#xe93f;" glyph-name="mic" d="M264.107 686.933c0 136.96 110.933 247.893 247.893 247.893 136.533 0 247.040-110.933 247.040-247.893v-204.373c0-136.96-110.507-247.893-247.040-247.893-136.96 0-247.893 110.933-247.893 247.893v204.373zM512 849.493c-89.6 0-162.56-72.96-162.56-162.56v-204.373c0-89.6 72.96-162.56 162.56-162.56 89.173 0 162.133 72.96 162.133 162.56v204.373c0 89.6-72.96 162.56-162.133 162.56zM170.667 593.493c23.467 0 42.667-19.2 42.667-42.667v-68.267c0-165.12 133.547-298.667 298.667-298.667 164.693 0 298.667 133.547 298.667 298.667v68.267c0 23.467 18.773 42.667 42.667 42.667 23.467 0 42.667-19.2 42.667-42.667v-68.267c0-197.973-149.333-360.533-341.333-381.867v-53.76h93.867c23.467 0 42.667-18.773 42.667-42.667 0-23.467-19.2-42.667-42.667-42.667h-273.067c-23.893 0-42.667 19.2-42.667 42.667 0 23.893 18.773 42.667 42.667 42.667h93.867v53.76c-192 21.333-341.333 183.893-341.333 381.867v68.267c0 23.467 18.773 42.667 42.667 42.667z" />
<glyph unicode="&#xe940;" glyph-name="minus" d="M42.667 448c0 23.893 18.773 42.667 42.667 42.667v-85.333c-23.893 0-42.667 19.2-42.667 42.667zM938.667 448v-42.667h-853.333v85.333h852.907l0.427-42.667zM938.667 448v-42.667c23.467 0 42.667 19.2 42.667 42.667 0 23.893-19.2 42.667-43.093 42.667l0.427-42.667z" />
<glyph unicode="&#xe941;" glyph-name="minus-round" d="M512 917.333c-259.413 0-469.333-209.92-469.333-469.333 0-258.987 209.92-469.333 469.333-469.333 258.987 0 469.333 210.347 469.333 469.333 0 259.413-210.347 469.333-469.333 469.333zM128 448c0 212.48 171.52 384 384 384 212.053 0 384-171.52 384-384 0-212.053-171.947-384-384-384-212.48 0-384 171.947-384 384zM288 490.667c-23.893 0-42.667-18.773-42.667-42.667 0-23.467 18.773-42.667 42.667-42.667h448c23.467 0 42.667 19.2 42.667 42.667 0 23.893-19.2 42.667-42.667 42.667h-448z" />
<glyph unicode="&#xe942;" glyph-name="next-btn" d="M631.164 670.17c16.661 16.662 43.678 16.662 60.339 0l192-192c16.661-16.661 16.661-43.678 0-60.339l-192-192c-16.661-16.661-43.678-16.661-60.339 0s-16.661 43.678 0 60.339l119.164 119.164h-579.661c-23.564 0-42.667 19.102-42.667 42.667s19.103 42.667 42.667 42.667h579.661l-119.164 119.163c-16.661 16.663-16.661 43.677 0 60.34z" />
<glyph unicode="&#xe943;" glyph-name="no-volume" d="M258.133 666.88h-44.8c-70.827 0-128-57.173-128-128v-181.333c0-70.827 57.173-128 128-128h44.8l217.6-197.973c63.147-57.173 164.267-12.373 164.267 72.533v688.213c0 84.907-101.12 129.707-164.267 72.533l-217.6-197.973zM532.907 801.707c8.533 7.253 21.76 1.707 21.76-9.387v-688.213c0-11.093-13.227-16.64-21.76-9.387l-229.547 209.067c-7.68 6.827-17.92 11.093-29.013 11.093h-61.013c-23.893 0-42.667 19.2-42.667 42.667v181.333c0 23.467 18.773 42.667 42.667 42.667h61.013c11.093 0 21.333 4.267 29.013 11.093v0l229.547 209.067zM684.373 566.187c16.64 17.067 43.52 17.067 60.16 0l58.027-57.6 57.6 57.6c16.64 17.067 43.947 17.067 60.587 0 16.64-16.64 16.64-43.52 0-60.16l-58.027-58.027 58.027-57.6c16.64-16.64 16.64-43.52 0-60.16-16.64-17.067-43.947-17.067-60.587 0l-57.6 57.6-58.027-57.6c-16.64-17.067-43.52-17.067-60.16 0-16.64 16.64-16.64 43.52 0 60.16l57.6 57.6-57.6 58.027c-16.64 16.64-16.64 43.52 0 60.16z" />
<glyph unicode="&#xe944;" glyph-name="no-bleach" d="M1015.040 60.16l-97.28 71.68-199.68 399.787 296.96 219.307c9.387 7.253 11.52 20.48 4.693 29.867-7.253 9.387-20.48 11.52-29.867 4.693l-290.987-215.040-168.107 336.213c-7.253 14.507-30.72 14.507-37.973 0l-168.107-336.213-290.987 215.040c-9.387 6.827-22.613 4.693-29.867-4.693-6.827-9.387-4.693-22.613 4.693-29.867l296.96-219.307-199.68-399.787-97.28-71.68c-9.387-7.253-11.52-20.48-4.693-29.867 4.267-5.547 10.667-8.96 17.493-8.96 4.267 0 8.533 1.707 12.373 4.267l29.867 22.187-18.773-37.973c-3.413-6.4-2.987-14.507 0.853-20.907s10.667-10.24 18.347-10.24h895.573c7.68 0 14.507 3.84 18.347 10.24s4.267 14.507 0.853 20.907l-18.773 37.973 29.867-22.187c3.84-2.56 8.107-4.267 12.373-4.267 6.827 0 13.227 3.413 17.493 8.96 6.827 9.387 4.693 22.613-4.693 29.867zM842.24 187.733l-294.4 217.6 135.253 100.267 159.147-317.867zM512 848.64l151.893-304.213-151.893-112.213-152.32 112.213 152.32 304.213zM340.48 505.6l135.253-100.267-294.4-217.6 159.147 317.867zM98.133 21.333l41.387 82.347 372.48 275.2 372.053-275.2 41.387-82.347h-827.307z" />
<glyph unicode="&#xe945;" glyph-name="no-dry-clean" d="M887.893 794.453l129.707 129.28c8.107 8.533 8.107 21.76 0 30.293-8.533 8.107-21.76 8.107-30.293 0l-129.28-129.707c-91.307 84.053-212.907 135.68-346.453 135.68-133.12 0-254.72-51.627-346.027-135.68l-129.28 129.707c-8.533 8.107-21.76 8.107-30.293 0-8.107-8.533-8.107-21.76 0-30.293l129.707-129.28c-84.053-91.307-136.107-212.907-136.107-346.453 0-133.12 52.053-254.72 136.107-346.027l-129.707-129.28c-8.107-8.533-8.107-21.76 0-30.293 4.267-4.267 9.813-6.4 14.933-6.4 5.547 0 11.093 2.133 15.36 6.4l129.28 129.707c91.307-84.053 212.907-136.107 346.027-136.107 133.547 0 255.147 52.053 346.453 136.107l129.28-129.707c4.267-4.267 9.813-6.4 14.933-6.4 5.547 0 11.093 2.133 15.36 6.4 8.107 8.533 8.107 21.76 0 30.293l-129.707 129.28c84.053 91.307 135.68 212.907 135.68 346.027 0 133.547-51.627 255.147-135.68 346.453zM511.573 917.333c122.027 0 232.533-46.933 316.16-122.88l-316.16-316.16-315.733 316.16c83.627 75.947 194.133 122.88 315.733 122.88zM165.547 132.267c-75.947 83.627-123.307 194.133-123.307 315.733 0 122.027 47.36 232.533 123.307 316.16l316.16-316.16-316.16-315.733zM511.573-21.333c-121.6 0-232.107 47.36-315.733 123.307l315.733 316.16 316.16-316.16c-83.627-75.947-194.133-123.307-316.16-123.307zM858.027 132.267l-316.16 315.733 316.16 316.16c75.947-83.627 122.88-194.133 122.88-316.16 0-121.6-46.933-232.107-122.88-315.733z" />
<glyph unicode="&#xe946;" glyph-name="no-ironing" d="M1023.573 173.653l-78.080 584.533c-5.547 42.24-41.813 73.813-84.48 73.813h-498.347c-11.947 0-21.76-9.387-21.76-21.333 0-11.52 9.813-21.333 21.76-21.333h498.347c21.333 0 39.68-15.787 42.24-36.693l29.44-219.307h-162.56l117.333 90.027c9.387 7.253 11.093 20.48 3.84 29.867s-20.48 11.093-29.867 3.84l-161.707-123.733h-337.067c-12.373 0-24.747-0.427-36.693-1.707l-163.84 125.44c-9.387 7.253-22.613 5.547-29.867-3.84s-5.547-22.613 3.84-29.867l133.547-102.4c-154.88-40.96-269.653-182.187-269.653-350.293 0-11.52 9.387-21.333 21.333-21.333h176.213l-61.44-46.933c-9.387-6.827-11.093-20.48-3.84-29.867 4.267-5.547 10.24-8.533 17.067-8.533 4.267 0 8.96 1.707 12.8 4.693l105.813 80.64h487.68l105.813-80.64c3.84-2.987 8.533-4.693 12.8-4.693 6.827 0 12.8 2.987 17.067 8.533 7.253 9.387 5.547 23.040-3.84 29.867l-61.44 46.933h176.213c6.4 0 12.373 2.987 16.213 7.253 4.267 4.693 5.973 11.093 5.12 17.067zM644.267 490.667l-132.693-101.12-132.267 101.12h264.96zM253.44 192h-210.347c9.813 150.613 124.587 272.64 271.36 294.827l162.133-124.16-223.147-170.667zM323.84 192l187.733 144.213 188.16-144.213h-375.893zM770.133 192l-223.147 170.667 167.253 128h224l39.68-298.667h-207.787z" />
<glyph unicode="&#xe947;" glyph-name="no-tumble-dry" d="M980.907 8.96v878.507l36.693 36.267c8.107 8.533 8.107 21.76 0 30.293-8.533 8.107-21.76 8.107-30.293 0l-36.267-36.693h-878.507l-36.267 36.693c-8.533 8.107-21.76 8.107-30.293 0-8.107-8.533-8.107-21.76 0-30.293l36.267-36.267v-878.507l-36.267-36.267c-8.107-8.533-8.107-21.76 0-30.293 4.267-4.267 9.813-6.4 14.933-6.4 5.547 0 11.093 2.133 15.36 6.4l36.267 36.267h878.507l36.267-36.267c4.267-4.267 9.813-6.4 14.933-6.4 5.547 0 11.093 2.133 15.36 6.4 8.107 8.533 8.107 21.76 0 30.293l-36.693 36.267zM511.573 874.667h396.8l-110.933-110.507c-75.52 68.693-175.787 110.507-285.867 110.507-109.653 0-209.92-41.813-285.44-110.507l-110.933 110.507h396.373zM481.707 448l-255.573-255.573c-61.013 68.267-98.56 157.44-98.56 255.573 0 98.56 37.547 187.733 98.56 256l255.573-256zM256 733.867c68.267 61.013 157.44 98.133 255.573 98.133 98.56 0 187.733-37.12 256-98.133l-256-255.573-255.573 255.573zM511.573 418.133l256-255.573c-68.267-61.013-157.44-98.56-256-98.56-98.133 0-187.307 37.547-255.573 98.56l255.573 255.573zM541.867 448l255.573 256c61.013-68.267 98.133-157.44 98.133-256 0-98.133-37.12-187.307-98.133-255.573l-255.573 255.573zM84.907 448v396.8l110.933-110.933c-68.693-75.52-110.933-175.787-110.933-285.867 0-109.653 42.24-209.92 110.933-285.44l-110.933-110.933v396.373zM511.573 21.333h-396.373l110.933 110.933c75.52-68.693 175.787-110.933 285.44-110.933 110.080 0 210.347 42.24 285.867 110.933l110.933-110.933h-396.8zM938.24 448v-396.373l-110.507 110.933c68.693 75.52 110.507 175.787 110.507 285.44 0 110.080-41.813 210.347-110.507 285.867l110.507 110.933v-396.8z" />
<glyph unicode="&#xe948;" glyph-name="no-wash" d="M993.707 574.293l-8.96-4.267 38.827 194.133c2.133 11.52-5.547 22.613-17.067 24.747-10.667 2.56-22.613-5.12-25.173-16.64l-29.013-146.347c-12.373 5.973-22.187 16.213-33.707 28.587-20.053 22.187-45.227 49.493-93.867 49.493s-73.813-27.307-93.867-49.493c-18.347-20.053-32.853-35.84-62.293-35.84-29.867 0-44.373 15.787-62.72 35.84-20.053 22.187-45.227 49.493-93.867 49.493-48.213 0-73.387-27.307-93.867-49.493-18.347-20.053-32.853-35.84-62.293-35.84-29.867 0-44.373 15.787-62.72 35.84-20.053 22.187-45.653 49.493-93.867 49.493-48.64 0-73.813-27.307-94.293-49.493-11.093-12.373-20.907-22.613-33.707-29.013l-29.013 146.773c-2.56 11.52-14.507 19.2-25.173 17.067-11.52-2.56-19.2-13.653-16.64-25.173l38.4-194.133-8.96 4.267c-10.667 4.693-23.040 0-28.16-10.667-4.693-10.667 0-23.040 10.667-28.16l36.693-16.64 68.693-342.613-62.72-28.587c-10.667-4.693-15.36-17.493-10.667-28.16 3.413-8.107 11.52-12.8 19.627-12.8 2.56 0 5.547 0.853 8.533 2.133l63.573 29.013c15.787-19.2 39.68-31.147 65.28-31.147h620.8c25.6 0 49.493 11.947 65.28 31.147l63.573-29.013c2.987-1.28 5.973-2.133 8.533-2.133 8.107 0 16.213 4.693 19.627 12.8 4.693 10.667 0 23.467-10.667 28.16l-62.72 28.587 68.267 342.613 37.12 16.64c10.667 5.12 15.36 17.493 10.667 28.16s-17.493 15.36-28.16 10.667zM97.28 497.067l363.093-165.12-302.507-137.813-60.587 302.933zM822.187 149.333h-620.8c-8.107 0-16.213 3.413-22.613 7.68l333.227 151.467 332.8-151.467c-6.4-4.267-14.507-7.68-22.613-7.68zM865.707 194.133l-302.507 137.813 363.093 165.12-60.587-302.933zM936.96 548.267l-424.96-192.853-424.96 192.853-7.253 34.56c25.173 9.387 41.813 26.88 56.747 43.093 18.347 19.627 32.853 35.413 62.72 35.413 29.44 0 43.947-15.787 62.293-35.413 20.48-22.187 45.653-49.92 94.293-49.92 48.213 0 73.387 27.733 93.867 49.92 18.347 19.627 32.853 35.413 62.293 35.413 29.867 0 44.373-15.787 62.72-35.413 20.053-22.187 45.227-49.92 93.867-49.92 48.213 0 73.387 27.733 93.867 49.92 18.347 19.627 32.427 35.413 62.293 35.413s44.373-15.787 62.293-35.413c14.933-16.213 31.573-33.707 56.747-43.093l-6.827-34.56z" />
<glyph unicode="&#xe949;" glyph-name="odnoklassniki" d="M763.307 679.68c0-130.56-113.067-237.227-251.307-237.227-138.667 0-251.733 106.667-251.733 237.227 0 131.413 113.067 237.653 251.733 237.653 138.24 0 251.307-106.24 251.307-237.653zM635.307 679.68c0 64.853-55.467 117.333-123.307 117.333-68.267 0-123.733-52.48-123.733-117.333 0-64 55.467-116.48 123.733-116.48 67.84 0 123.307 52.48 123.307 116.48zM288.427 305.493c-63.147 38.827-90.88 61.013-66.56 108.373 14.507 26.88 53.76 49.067 105.813 10.24 0 0 70.4-52.907 184.32-52.907 113.493 0 183.893 52.907 183.893 52.907 52.053 38.827 91.307 16.64 105.813-10.24 24.32-47.36-3.413-69.547-66.56-108.373v0c-53.333-32-126.293-44.8-174.933-49.493 0 0.427-0.427 0.427-0.427 0.427l0.427-0.427c11.093-10.24 185.173-174.080 188.587-177.493 54.187-52.48-33.707-134.4-88.32-83.627-37.12 35.413-91.307 86.613-148.053 140.373l-148.053-140.373c-54.613-50.347-142.933 32.427-88.32 83.627 163.413 154.453 187.307 177.067 188.16 177.92-0.427-0.427-6.827-6.4 0 0v0c-47.787 4.693-122.027 16.64-175.787 49.067z" />
<glyph unicode="&#xe94a;" glyph-name="paypal" d="M451.413-21.333h-133.547c-8.533 0-17.067 0-26.027 4.267-8.533 4.267-17.067 8.96-21.333 17.067-4.267 8.533-12.8 17.493-12.8 25.6-4.693 8.96-4.693 21.333 0 30.293l4.267 16.64h-86.187c-47.36 0-90.453 42.667-90.453 90.027v4.267l90.453 665.173c4.267 46.933 43.093 85.333 90.453 85.333h267.093c146.347 0 250.027-85.333 275.627-213.333 81.92-55.467 129.707-145.067 129.707-256 0-145.067-151.040-256-284.587-256h-90.453l-21.76-136.107c-4.267-21.333-12.8-42.667-29.867-55.893-17.493-12.8-38.827-21.333-60.587-21.333zM339.2 64h107.947l4.267 4.267 26.027 174.933c4.267 21.333 21.333 34.133 43.093 34.133h125.013c90.453 0 197.973 77.227 197.973 170.667 0 34.56-8.533 93.867-38.827 141.227-25.6-123.733-150.613-230.4-275.627-230.4h-125.013c0 0-4.267-4.267-4.267-13.227l-51.627-238.933-8.96-42.667zM162.56 162.56l4.267-4.693h103.68l51.627 204.8c8.533 46.933 43.093 81.493 90.453 81.493h125.013c94.72 0 198.4 97.707 198.4 195.84 0 124.16-73.387 196.267-198.4 196.267h-271.36l-4.267-4.267v-3.84l-99.413-665.6z" />
<glyph unicode="&#xe94b;" glyph-name="adress" d="M485.547-1.28c0 0 0 0 26.453 33.28l26.027-33.28c-15.36-12.373-37.12-12.373-52.48 0zM485.547-1.28l26.453 33.28c26.027-33.28 26.027-33.28 26.027-33.28h0.427v0.427l0.853 0.427c0.853 0.427 1.707 1.28 2.987 2.56 2.56 2.133 6.4 5.12 10.667 8.96 9.387 7.68 22.187 19.2 37.973 33.28 30.72 29.013 72.107 70.4 113.92 120.32 81.493 98.56 169.813 238.933 169.813 389.547 0 195.84-163.84 352.427-362.667 352.427-199.253 0-362.667-156.587-362.667-352.427 0-150.613 87.893-290.987 169.387-389.547 41.813-49.92 83.2-91.307 113.92-120.32 15.787-14.080 28.587-25.6 37.973-33.28 4.267-3.84 8.107-6.827 10.667-8.96 1.28-1.28 2.133-2.133 2.987-2.56l0.853-0.427v-0.427h0.427zM234.667 554.24c0 146.347 122.88 267.093 277.333 267.093 154.027 0 277.333-120.747 277.333-267.093 0-119.467-72.107-240.213-150.613-334.933-38.4-46.507-76.8-85.333-105.813-112.213-8.107-7.253-14.933-13.653-20.907-18.773-6.4 5.12-13.227 11.52-21.333 18.773-29.013 26.88-67.413 65.707-105.813 112.213-78.507 94.72-150.187 215.467-150.187 334.933zM512 714.667c-94.293 0-170.667-76.373-170.667-170.667 0-93.867 76.373-170.667 170.667-170.667 93.867 0 170.667 76.8 170.667 170.667 0 94.293-76.8 170.667-170.667 170.667zM426.667 544c0 47.36 37.973 85.333 85.333 85.333 46.933 0 85.333-37.973 85.333-85.333 0-46.933-38.4-85.333-85.333-85.333-47.36 0-85.333 38.4-85.333 85.333z" />
<glyph unicode="&#xe94c;" glyph-name="pinterest" d="M524.8 917.333c-259.413 0-396.8-164.693-396.8-344.32 0-83.627 46.507-187.307 121.6-220.587 21.76-9.387 18.773 2.133 37.12 72.107 1.707 5.973 0.853 11.093-3.84 16.64-107.52 123.307-20.907 376.747 226.56 376.747 357.973 0 290.987-492.373 62.293-492.373-59.307 0-103.253 46.080-89.173 103.253 17.067 67.84 49.92 140.373 49.92 189.44 0 122.88-184.747 104.96-184.747-58.453 0-50.347 17.92-84.48 17.92-84.48s-59.307-238.507-70.4-282.88c-18.773-75.52 2.56-197.547 4.267-207.787 1.28-5.973 7.68-7.68 11.52-2.987 5.973 7.68 77.653 109.227 97.707 183.040 7.253 26.88 37.547 135.253 37.547 135.253 19.627-35.413 76.8-65.28 137.813-65.28 180.907 0 311.893 158.293 311.893 354.133-0.853 188.16-162.987 328.533-371.2 328.533v0z" />
<glyph unicode="&#xe94d;" glyph-name="play" d="M512 917.333c-259.413 0-469.333-209.92-469.333-469.333 0-258.987 209.92-469.333 469.333-469.333 258.987 0 469.333 210.347 469.333 469.333 0 259.413-210.347 469.333-469.333 469.333zM128 448c0 212.48 171.52 384 384 384 212.053 0 384-171.52 384-384 0-212.053-171.947-384-384-384-212.48 0-384 171.947-384 384zM685.227 380.587c44.8 34.133 44.8 101.12 0 135.253l-195.413 149.333c-55.893 43.093-136.96 2.987-136.96-67.84v-298.667c0-70.4 81.067-110.507 136.96-67.413l195.413 149.333zM438.187 597.333l195.413-149.333-195.413-149.333v298.667z" />
<glyph unicode="&#xe94e;" glyph-name="plus" d="M512 917.333c23.467 0 42.667-18.773 42.667-42.667v-384h384c23.467 0 42.667-18.773 42.667-42.667 0-23.467-19.2-42.667-42.667-42.667h-384v-384c0-23.467-19.2-42.667-42.667-42.667-23.893 0-42.667 19.2-42.667 42.667v384h-384c-23.893 0-42.667 19.2-42.667 42.667 0 23.893 18.773 42.667 42.667 42.667h384v384c0 23.893 18.773 42.667 42.667 42.667z" />
<glyph unicode="&#xe94f;" glyph-name="plus-round" d="M512 917.333c-259.413 0-469.333-209.92-469.333-469.333 0-258.987 209.92-469.333 469.333-469.333 258.987 0 469.333 210.347 469.333 469.333 0 259.413-210.347 469.333-469.333 469.333zM128 448c0 212.48 171.52 384 384 384 212.053 0 384-171.52 384-384 0-212.053-171.947-384-384-384-212.48 0-384 171.947-384 384zM512 714.667c23.467 0 42.667-18.773 42.667-42.667v-181.333h181.333c23.467 0 42.667-18.773 42.667-42.667 0-23.467-19.2-42.667-42.667-42.667h-181.333v-181.333c0-23.467-19.2-42.667-42.667-42.667-23.893 0-42.667 19.2-42.667 42.667v181.333h-181.333c-23.893 0-42.667 19.2-42.667 42.667 0 23.893 18.773 42.667 42.667 42.667h181.333v181.333c0 23.893 18.773 42.667 42.667 42.667z" />
<glyph unicode="&#xe950;" glyph-name="prev-btn" d="M392.837 225.83c-16.663-16.661-43.677-16.661-60.34 0l-192 192c-16.662 16.661-16.662 43.678 0 60.339l192 192c16.663 16.662 43.677 16.662 60.34 0s16.662-43.677 0-60.34l-119.164-119.163h579.66c23.565 0 42.667-19.102 42.667-42.667s-19.102-42.667-42.667-42.667h-579.66l119.164-119.164c16.662-16.661 16.662-43.678 0-60.339z" />
<glyph unicode="&#xe951;" glyph-name="profile" d="M512.004 799.333c-77.623 0-140.549-62.926-140.549-140.549s62.925-140.549 140.549-140.549c77.623 0 140.549 62.925 140.549 140.549s-62.927 140.549-140.549 140.549zM291.141 658.784c0 121.979 98.883 220.863 220.863 220.863s220.861-98.884 220.861-220.863c0-121.979-98.882-220.863-220.861-220.863s-220.863 98.883-220.863 220.863zM275.241 317.452c-27.841 0-49.603-13.559-58.436-33.033-12.227-26.961-23.298-59.055-25.91-89.492-1.168-13.607 4.506-23.636 12.324-28.491 41.328-25.672 137.090-69.849 308.785-69.849 171.697 0 267.459 44.177 308.787 69.849 7.819 4.855 13.493 14.884 12.324 28.491-2.614 30.437-13.685 62.53-25.913 89.492-8.83 19.474-30.594 33.033-58.434 33.033h-473.526zM143.662 317.591c24.413 53.829 78.928 80.174 131.579 80.174h473.526c52.652 0 107.165-26.346 131.578-80.174 14.023-30.919 29.070-72.481 32.786-115.796 3.385-39.442-13.005-80.625-49.959-103.581-54.356-33.768-164.858-81.938-351.168-81.938-186.312 0-296.811 48.17-351.165 81.938-36.955 22.956-53.349 64.139-49.963 103.581 3.718 43.315 18.764 84.878 32.787 115.796z" />
<glyph unicode="&#xe952;" glyph-name="reload" d="M288 853.333c23.040-6.4 36.267-29.44 30.293-52.48l-20.053-75.093 21.76 12.373c183.467 105.813 418.133 43.093 524.373-140.8 105.813-183.467 43.093-418.133-140.373-524.373-183.893-105.813-418.56-43.093-524.8 140.373-11.947 20.48-4.693 46.507 15.787 58.453s46.507 4.693 58.027-15.787c82.773-142.507 265.387-191.573 408.32-109.227 142.507 82.773 191.573 265.387 109.227 407.893-82.773 142.933-265.387 192-407.893 109.653l-21.76-12.8 75.093-20.053c23.040-5.973 36.267-29.44 30.293-52.053-5.973-23.040-29.44-36.267-52.053-30.293l-174.933 46.933c-23.040 5.973-36.267 29.44-30.293 52.053l46.933 174.933c5.973 22.613 29.44 36.267 52.053 30.293z" />
<glyph unicode="&#xe953;" glyph-name="rss" d="M85.333 874.667c470.187 0 853.333-382.72 853.333-853.333h-162.56c0 381.013-310.187 691.2-690.773 691.2v162.133zM491.52 21.333h162.56c0 314.027-255.147 569.173-568.747 569.173v-162.56c224 0 406.187-182.187 406.187-406.613zM206.933 21.333c67.413 0 122.027 54.613 122.027 122.027s-54.613 122.027-122.027 122.027c-67.413 0-121.6-54.613-121.6-122.027s54.187-122.027 121.6-122.027z" />
<glyph unicode="&#xe954;" glyph-name="search" d="M466.833 782.157c-169.107 0-306.196-137.089-306.196-306.196 0-169.11 137.089-306.193 306.196-306.193 84.486 0 160.916 34.159 216.356 89.522 55.549 55.471 89.841 132.028 89.841 216.672 0 169.108-137.090 306.196-306.196 306.196zM80.324 475.961c0 213.464 173.047 386.51 386.51 386.51s386.508-173.046 386.508-386.51c0-92.329-32.413-177.145-86.42-243.603l164.984-164.683c15.697-15.667 15.721-41.093 0.054-56.79s-41.093-15.721-56.79-0.048l-165.069 164.762c-66.409-53.844-151.095-86.149-243.269-86.149-213.463 0-386.51 173.050-386.51 386.511z" />
<glyph unicode="&#xe955;" glyph-name="share" d="M783.787 821.333c-55.893 0-101.12-45.227-101.12-101.12 0-11.093 1.707-21.76 4.693-31.573 13.227-40.533 51.627-69.973 96.427-69.973 55.893 0 101.547 45.653 101.547 101.547s-45.653 101.12-101.547 101.12zM597.333 720.213c0 103.253 83.2 186.453 186.453 186.453s186.88-83.2 186.88-186.453c0-103.253-83.627-186.88-186.88-186.88-65.28 0-122.88 33.707-156.16 84.907l-208.213-104.107c9.813-34.56 8.96-71.68-1.707-106.24l227.413-106.667c34.133 37.973 83.627 61.44 138.667 61.44 103.253 0 186.88-83.2 186.88-186.453s-83.627-186.88-186.88-186.88c-103.253 0-186.453 83.627-186.453 186.88 0 17.493 2.133 34.133 6.4 49.92l-229.973 108.373c-33.707-35.413-81.493-57.173-133.973-57.173-103.253 0-186.453 83.627-186.453 186.88s83.2 186.453 186.453 186.453c55.040 0 104.533-23.893 138.667-61.867l219.733 110.080c-0.853 7.253-0.853 14.080-0.853 21.333zM239.787 565.333c-55.893 0-101.12-45.227-101.12-101.12s45.227-101.547 101.12-101.547c35.84 0 67.413 18.773 85.76 47.36 19.627 31.147 20.48 71.68 2.56 103.68-17.493 31.147-50.347 51.627-88.32 51.627zM783.787 277.333c-37.547 0-70.4-20.48-87.893-50.773-8.533-14.933-13.227-32-13.227-50.347 0-55.893 45.227-101.547 101.12-101.547s101.547 45.653 101.547 101.547c0 55.893-45.653 101.12-101.547 101.12z" />
<glyph unicode="&#xe956;" glyph-name="share-arrow" d="M981.333 491.093l-390.4 426.24v-254.293h-82.773c-257.28 0-465.493-207.787-465.493-463.787v-135.253l36.693 40.533c125.013 136.533 302.507 214.613 488.107 214.613h23.467v-254.293l390.4 426.24z" />
<glyph unicode="&#xe957;" glyph-name="shield" d="M341.333 917.333c-118.187 0-213.333-97.707-213.333-218.453v-254.293c0-184.32 116.053-334.933 263.253-430.080 73.387-47.36 167.68-47.36 241.067 0 147.2 95.147 263.68 245.76 263.68 430.080v254.293c0 120.747-95.573 218.453-213.333 218.453h-341.333zM213.333 698.88c0 72.533 57.173 130.987 128 130.987h341.333c70.4 0 128-58.453 128-130.987v-254.293c0-143.787-91.307-270.507-223.573-355.84-46.080-29.867-104.533-29.867-150.613 0-132.267 85.333-223.147 212.053-223.147 355.84v254.293zM672.427 548.693c15.36 18.347 12.8 45.227-5.12 60.16-18.347 15.36-45.227 12.8-60.16-5.12l-132.267-158.72-63.147 54.187c-17.92 15.36-44.8 13.227-60.16-4.693-15.36-17.493-13.653-44.373 4.267-60.16l96-82.347c8.96-7.68 20.053-11.093 31.573-10.24 11.093 0.853 21.76 6.4 29.013 14.933l160 192z" />
<glyph unicode="&#xe958;" glyph-name="skype" d="M953.173 349.013c67.84 305.493-199.253 582.4-513.28 529.067-170.667 105.813-397.227-13.653-397.227-216.32 0-47.36 12.8-91.307 35.413-129.28-63.147-305.92 206.507-578.987 520.107-522.24 221.867-117.333 466.773 116.48 354.987 338.773zM654.933 165.12c-82.347-33.707-218.027-34.133-299.947 8.96-116.907 62.293-137.813 202.667-37.12 202.667 75.947 0 52.053-88.747 128.853-124.587 35.413-16.64 110.933-18.347 154.88 11.52 43.52 29.013 39.68 74.667 16.213 96.853-62.72 57.6-241.92 34.56-323.84 136.107-35.84 43.947-42.24 121.173 1.28 177.493 76.373 98.133 299.947 104.107 396.373 29.867 88.747-68.693 64.853-160-6.827-160-86.187 0-40.96 113.067-180.053 113.067-101.12 0-140.8-72.107-69.547-106.667 96.427-48.213 341.76-32 341.76-219.307 0-77.653-47.787-135.68-122.027-165.973z" />
<glyph unicode="&#xe959;" glyph-name="range" d="M433.493 866.133c29.867 68.693 126.72 68.693 156.587 0l89.6-206.507 224.427-21.333c73.813-7.253 104.107-99.413 48.213-148.907l-168.96-148.907 49.067-220.16c16.213-72.533-62.293-129.707-126.72-91.733l-193.707 114.347-194.133-114.347c-64.427-37.973-142.933 19.2-126.72 91.733l49.067 220.16-168.96 148.907c-55.893 49.493-25.6 141.653 48.213 148.907l224.427 21.333 89.6 206.507zM601.6 625.493l-89.6 206.933-90.027-206.933c-12.373-28.16-38.827-47.787-69.973-50.773l-224.427-21.333 168.96-149.333c23.467-20.48 33.707-52.053 26.88-82.347l-49.067-219.733 194.133 114.347c26.88 15.787 59.733 15.787 86.613 0l194.133-114.347-49.067 219.733c-6.827 30.293 3.413 61.867 26.88 82.347l168.96 149.333-224.427 21.333c-31.147 2.987-57.6 22.613-69.973 50.773z" />
<glyph unicode="&#xe95a;" glyph-name="telegram" d="M410.992 312.265l-15.527-238.251c22.216 0 31.838 10.411 43.375 22.912l104.154 108.587 215.821-172.416c39.582-24.064 67.469-11.392 78.148 39.723l141.662 724.134 0.038 0.043c12.557 63.829-21.158 88.789-59.721 73.131l-832.698-347.776c-56.83-24.064-55.969-58.624-9.661-74.283l212.887-72.23 494.495 337.532c23.27 16.811 44.429 7.509 27.025-9.301l-399.999-391.804z" />
<glyph unicode="&#xe95b;" glyph-name="tumble-dry" d="M23.040 960h977.493c12.8 0 23.467-10.24 23.467-23.040v-977.493c0-12.8-10.667-23.467-23.467-23.467h-977.493c-12.8 0-23.040 10.667-23.040 23.467v977.493c0 12.8 10.24 23.040 23.040 23.040zM977.067-17.067h-930.56v930.56h930.56v-930.56zM46.507 448c0-256.427 208.64-465.067 465.493-465.067 256.427 0 465.067 208.64 465.067 465.067 0 256.853-208.64 465.493-465.067 465.493-256.853 0-465.493-208.64-465.493-465.493zM93.013 448c0-230.827 187.733-418.56 418.987-418.56 230.827 0 418.56 187.733 418.56 418.56 0 231.253-187.733 418.987-418.56 418.987-231.253 0-418.987-187.733-418.987-418.987z" />
<glyph unicode="&#xe95c;" glyph-name="tumble-dry-1" d="M1000.533 960h-977.493c-12.8 0-23.040-10.24-23.040-23.040v-977.493c0-12.8 10.24-23.467 23.040-23.467h977.493c12.8 0 23.467 10.667 23.467 23.467v977.493c0 12.8-10.667 23.040-23.467 23.040zM977.067 448v-465.067h-465.067c256.427 0 465.067 208.64 465.067 465.067zM512 913.493h465.067v-465.493c0 256.853-208.64 465.493-465.067 465.493zM46.507 448c0-256.427 208.64-465.067 465.493-465.067h-465.493v465.067zM46.507 448v465.493h465.493c-256.853 0-465.493-208.64-465.493-465.493zM512 29.44c-231.253 0-418.987 187.733-418.987 418.56 0 231.253 187.733 418.987 418.987 418.987 230.827 0 418.56-187.733 418.56-418.987 0-230.827-187.733-418.56-418.56-418.56zM558.507 448c0-25.6-20.907-46.507-46.507-46.507-26.027 0-46.933 20.907-46.933 46.507 0 26.027 20.907 46.933 46.933 46.933 25.6 0 46.507-20.907 46.507-46.933z" />
<glyph unicode="&#xe95d;" glyph-name="tumble-dry-2" d="M23.040 960h977.493c12.8 0 23.467-10.24 23.467-23.040v-977.493c0-12.8-10.667-23.467-23.467-23.467h-977.493c-12.8 0-23.040 10.667-23.040 23.467v977.493c0 12.8 10.24 23.040 23.040 23.040zM46.507 913.493v-930.56h930.56v930.56h-930.56zM512 913.493c256.427 0 465.067-208.64 465.067-465.493 0-256.427-208.64-465.067-465.067-465.067-256.853 0-465.493 208.64-465.493 465.067 0 256.853 208.64 465.493 465.493 465.493zM93.013 448c0-230.827 187.733-418.56 418.987-418.56 230.827 0 418.56 187.733 418.56 418.56 0 231.253-187.733 418.987-418.56 418.987-231.253 0-418.987-187.733-418.987-418.987zM418.56 401.493c26.027 0 46.507 20.907 46.507 46.507 0 26.027-20.48 46.933-46.507 46.933-25.6 0-46.507-20.907-46.507-46.933 0-25.6 20.907-46.507 46.507-46.507zM651.52 448c0-25.6-20.907-46.507-46.507-46.507-26.027 0-46.507 20.907-46.507 46.507 0 26.027 20.48 46.933 46.507 46.933 25.6 0 46.507-20.907 46.507-46.933z" />
<glyph unicode="&#xe95e;" glyph-name="tumble-dry-3" d="M1000.533 960h-977.493c-12.8 0-23.040-10.24-23.040-23.040v-977.493c0-12.8 10.24-23.467 23.040-23.467h977.493c12.8 0 23.467 10.667 23.467 23.467v977.493c0 12.8-10.667 23.040-23.467 23.040zM46.507 448v465.493h465.493c-256.853 0-465.493-208.64-465.493-465.493zM512-17.067h-465.493v465.067c0-256.427 208.64-465.067 465.493-465.067zM977.067 448c0 256.853-208.64 465.493-465.067 465.493h465.067v-465.493zM977.067 448v-465.067h-465.067c256.427 0 465.067 208.64 465.067 465.067zM512 29.44c-231.253 0-418.987 187.733-418.987 418.56 0 231.253 187.733 418.987 418.987 418.987 230.827 0 418.56-187.733 418.56-418.987 0-230.827-187.733-418.56-418.56-418.56zM372.053 448c0-25.6-20.907-46.507-46.507-46.507s-46.507 20.907-46.507 46.507c0 26.027 20.907 46.933 46.507 46.933s46.507-20.907 46.507-46.933zM512 401.493c25.6 0 46.507 20.907 46.507 46.507 0 26.027-20.907 46.933-46.507 46.933-26.027 0-46.933-20.907-46.933-46.933 0-25.6 20.907-46.507 46.933-46.507zM744.533 448c0-25.6-20.907-46.507-46.507-46.507s-46.507 20.907-46.507 46.507c0 26.027 20.907 46.933 46.507 46.933s46.507-20.907 46.507-46.933z" />
<glyph unicode="&#xe95f;" glyph-name="unlock" d="M512 821.333c-114.347 0-207.787-89.6-213.333-202.667h458.667c117.76 0 213.333-95.147 213.333-213.333v-202.667c0-117.76-95.573-213.333-213.333-213.333h-490.667c-118.187 0-213.333 95.573-213.333 213.333v202.667c0 99.84 67.84 183.040 160 206.933 2.133 162.987 134.827 294.4 298.667 294.4 70.4 0 135.253-24.32 186.453-65.28 18.347-14.933 21.333-41.387 6.827-60.16-14.933-18.347-41.813-21.333-60.16-6.4-36.693 29.013-82.773 46.507-133.12 46.507zM885.333 202.667v202.667c0 70.827-57.6 128-128 128h-490.667c-70.827 0-128-57.173-128-128v-202.667c0-70.4 57.173-128 128-128h490.667c70.4 0 128 57.6 128 128zM554.667 384c0 23.893-19.2 42.667-42.667 42.667-23.893 0-42.667-18.773-42.667-42.667v-128c0-23.467 18.773-42.667 42.667-42.667 23.467 0 42.667 19.2 42.667 42.667v128z" />
<glyph unicode="&#xe960;" glyph-name="up" d="M289.707 567.467c-16.64 16.64-16.64 43.52 0 60.16l192 192c16.64 16.64 43.52 16.64 60.16 0l192-192c16.64-16.64 16.64-43.52 0-60.16s-43.52-16.64-60.16 0l-119.040 119.040v-579.84c0-23.467-19.2-42.667-42.667-42.667-23.893 0-42.667 19.2-42.667 42.667v579.84l-119.467-119.040c-16.64-16.64-43.52-16.64-60.16 0z" />
<glyph unicode="&#xe961;" glyph-name="up-down-select" d="M807.253 533.333l-295.253 384-295.68-384h590.933zM216.32 394.667l295.68-416 295.253 416h-590.933z" />
<glyph unicode="&#xe962;" glyph-name="upload" d="M481.707 894.293c16.64 16.64 43.52 16.64 60.16 0l192-192c16.64-16.64 16.64-43.52 0-60.16s-43.52-16.64-60.16 0l-119.040 119.040v-537.173c0-23.467-19.2-42.667-42.667-42.667-23.893 0-42.667 19.2-42.667 42.667v537.173l-119.467-119.040c-16.64-16.64-43.52-16.64-60.16 0s-16.64 43.52 0 60.16l192 192zM96 362.667c23.467 0 42.667-18.773 42.667-42.667v-160c0-46.933 37.973-85.333 85.333-85.333h576c46.933 0 85.333 38.4 85.333 85.333v160c0 23.893 18.773 42.667 42.667 42.667 23.467 0 42.667-18.773 42.667-42.667v-160c0-93.867-76.8-170.667-170.667-170.667h-576c-94.293 0-170.667 76.8-170.667 170.667v160c0 23.893 18.773 42.667 42.667 42.667z" />
<glyph unicode="&#xe963;" glyph-name="vertical" d="M289.707 840.96c16.64 16.64 43.52 16.64 60.16 0l149.333-149.333c16.64-16.64 16.64-43.52 0-60.16s-43.52-16.64-60.16 0l-76.373 76.373v-579.84c0-23.467-19.2-42.667-42.667-42.667-23.893 0-42.667 19.2-42.667 42.667v579.84l-76.8-76.373c-16.64-16.64-43.52-16.64-60.16 0s-16.64 43.52 0 60.16l149.333 149.333zM704 810.667c23.467 0 42.667-18.773 42.667-42.667v-579.413l76.373 76.373c16.64 16.64 43.52 16.64 60.16 0s16.64-43.52 0-60.16l-149.333-149.333c-16.64-16.64-43.52-16.64-60.16 0l-149.333 149.333c-16.64 16.64-16.64 43.52 0 60.16s43.52 16.64 60.16 0l76.8-76.373v579.413c0 23.893 18.773 42.667 42.667 42.667z" />
<glyph unicode="&#xe964;" glyph-name="viber" d="M929.95 373.926c27.772 235.514-13.342 384.201-87.505 451.451l0.038 0.039c-119.701 114.846-523.949 131.845-667.154-5.158-64.311-67.017-86.963-165.373-89.445-287.135-2.483-121.801-5.431-349.969 205.615-411.87h0.194l-0.194-94.524c0 0-1.435-38.298 22.846-45.995 27.772-9.067 40.34 8.713 126.721 112.657 144.444-12.621 255.381 16.294 267.985 20.518 29.167 9.843 194.21 31.846 220.898 260.015zM455.3 159.902c0 0-91.423-114.846-119.854-144.661-9.309-9.69-19.511-8.794-19.355 10.432 0 12.625 0.698 156.932 0.698 156.932-178.929 51.661-168.378 245.948-166.439 347.588 1.939 101.677 20.402 184.95 74.861 241.024 125.635 118.676 480.040 92.143 570.339 6.643 110.391-98.59 71.1-377.127 71.33-386.624-22.69-190.46-156.433-202.534-181.022-210.778-10.513-3.52-108.066-28.8-230.558-20.557zM505.882 748.907c-14.933 0-14.933-23.446 0-23.641 115.861-0.899 211.281-82.256 212.326-231.489 0-15.748 22.886-15.552 22.69 0.192-1.242 160.803-105.463 254.039-235.017 254.938zM658.287 518.519c-0.35-15.552 22.498-16.299 22.69-0.55 1.903 88.666-52.361 161.701-154.338 169.399-14.933 1.094-16.482-22.547-1.587-23.642 88.435-6.76 135.019-67.564 133.235-145.207zM633.856 417.668c-19.162 11.174-38.673 4.22-46.741-6.763l-16.87-21.999c-8.572-11.174-24.593-9.69-24.593-9.69-116.907 31.142-148.169 154.39-148.169 154.39s-1.435 16.686 9.271 25.634l21.1 17.585c10.551 8.44 17.22 28.76 6.477 48.728-28.702 52.246-47.98 70.26-57.793 84.093-10.318 13.012-25.833 15.943-41.969 7.151h-0.349c-33.551-19.773-70.284-56.778-58.531-94.878 20.053-40.171 56.902-168.224 174.351-264.98 55.198-45.76 142.545-92.651 179.627-103.475l0.35-0.546c36.54-12.271 72.068 26.18 91.034 61.001v0.273c8.418 16.841 5.628 32.785-6.669 43.217-21.798 21.414-54.69 45.056-80.525 60.258zM542.618 600.15c37.278-2.188 55.351-21.805 57.293-62.093 0.695-15.749 23.386-14.652 22.69 1.094-2.483 52.597-29.713 81.905-78.741 84.64-14.933 0.899-16.329-22.743-1.242-23.642z" />
<glyph unicode="&#xe965;" glyph-name="vk" d="M849.707 404.139c-16.555 20.907-11.819 30.208 0 48.896 0.213 0.213 136.875 189.056 150.955 253.099l0.085 0.043c6.997 23.339 0 40.491-33.835 40.491h-111.957c-28.501 0-41.643-14.72-48.683-31.189 0 0-57.003-136.448-137.643-224.896-26.027-25.557-38.059-33.749-52.267-33.749-6.997 0-17.877 8.192-17.877 31.531v217.813c0 27.989-7.979 40.491-31.573 40.491h-176.043c-17.877 0-28.501-13.056-28.501-25.216 0-26.539 40.32-32.64 44.501-107.307v-162.005c0-35.499-6.443-42.027-20.736-42.027-38.059 0-130.432 137.003-185.173 293.803-11.051 30.421-21.845 42.709-50.56 42.709h-112c-31.957 0-38.4-14.72-38.4-31.189 0-29.099 38.059-173.781 176.981-364.928 92.587-130.475 222.976-201.173 341.589-201.173 71.296 0 80 15.701 80 42.709 0 124.672-6.443 136.448 29.269 136.448 16.555 0 45.056-8.192 111.616-71.125 76.075-74.624 88.576-108.032 131.157-108.032h111.957c31.915 0 48.085 15.701 38.784 46.677-21.291 65.152-165.163 199.168-171.648 208.128z" />
<glyph unicode="&#xe966;" glyph-name="volume-off" d="M823.040 733.867c17.493 17.067 42.667 17.067 60.16 0 17.067-16.64 17.067-42.667 0-59.307l-597.76-597.333c-16.64-17.067-42.667-17.067-59.307 0-17.493 16.64-17.493 42.667 0 59.307l140.8 140.8h-25.6c-47.36 0-85.333 38.827-85.333 85.333v170.667c0 46.933 37.973 85.333 85.333 85.333h98.133c21.333 0 38.4 8.533 55.467 17.493l119.040 97.707c26.027 21.333 68.693 0 68.693-33.707v-106.667l140.373 140.373zM682.667 196.267c0-38.4-38.4-55.040-68.693-33.707l-89.173 68.267 157.867 157.44v-192z" />
<glyph unicode="&#xe967;" glyph-name="volume-on" d="M737.707 77.227c8.96-8.96 17.493-13.227 30.293-13.227 8.533 0 21.333 4.267 29.867 13.227 3.84 4.267 149.333 140.373 149.333 370.773 0 226.56-145.493 366.933-149.333 371.2-17.493 17.067-42.667 17.067-60.16 0-17.067-16.64-17.067-42.667 0-59.307 0-4.693 124.16-119.893 124.16-311.893s-124.16-311.467-124.16-311.467c-17.067-16.64-17.067-42.667 0-59.307zM85.333 533.333c0 46.933 37.973 85.333 85.333 85.333h98.133c21.333 0 37.973 8.533 51.2 17.493l119.467 97.707c29.867 21.333 72.533 4.693 72.533-33.707v-503.893c0-33.707-42.667-55.040-68.693-33.707l-119.040 97.707c-17.493 8.96-34.133 17.067-55.467 17.067h-98.133c-47.36 0-85.333 38.827-85.333 85.333v170.667zM640 234.667c-12.8 0-21.333 4.267-29.867 13.227-17.493 16.64-17.493 42.667 0 59.307 0 0 51.2 55.467 51.2 140.8s-51.2 136.533-51.2 141.227c-17.493 16.64-17.493 42.667 0 59.307 17.067 17.067 42.667 17.067 59.733 0 4.267-4.267 76.8-76.373 76.8-200.533 0-123.733-72.533-195.84-76.8-200.107-8.533-8.96-17.067-13.227-29.867-13.227z" />
</font>
</defs>
</svg>
